<svg version="1.1" xmlns="http://www.w3.org/2000/svg" viewBox="-204.83015327912327 -160.09157596374322 409.6603065582464 433.55719797095105" fill="none" stroke="black" stroke-width="0.6%" vector-effect="non-scaling-stroke">
    <path d="M -85.95033 212.58536 L -85.95033 208.78705 L 0.30728 -7.9959 A 30 15.8903 122.31577 0 1 34.67502 -34.62531 L 41.84329 -30.09096 A 30 15.8903 302.31577 0 0 7.47554 -3.46155 L 0.30728 -7.9959" />
    <path d="M -199.8014 124.69759 A 20 13.00634 180 0 0 -203.83015 132.52626 A 20 13.00634 180 0 0 -197.77519 141.84954 L -197.77519 150.88953 L -11.40042 268.78257 A 20 13.00634 180 0 0 15.97724 269.0955 L 16.88115 268.52798 L 198.16667 147.32532 L 199.8014 146.0853 A 20 13.00634 180 0 0 203.83015 138.25663 L 203.83015 129.21664 A 20 13.00634 180 0 0 197.77519 119.89336 L 130.39354 77.27049" />
    <path d="M -198.16667 123.45757 L -199.8014 124.69759" />
    <path d="M -104.00334 60.50248 L -198.16667 123.45757" />
    <path d="M -197.77519 141.84954 L -85.95033 212.58536" />
    <path d="M -11.40042 259.74257 L -11.40042 268.78257" />
    <path d="M -78.78207 217.11971 L -11.40042 259.74257 A 20 13.00634 180 0 0 15.97724 260.05551 L 16.88115 259.48799 L 16.88115 268.52798" />
    <path d="M -78.78207 217.11971 L -78.78207 213.32139 L 7.47554 -3.46155" />
    <path d="M -78.78207 213.32139 L -85.95033 208.78705" />
    <path d="M 44.13594 -27.97171 A 30 15.8903 302.31577 0 0 41.84329 -30.09096" />
    <path d="M 44.13594 -27.97171 L 130.39354 73.47217 L 130.39354 77.27049" />
    <path d="M 65.30507 79.38527 L 65.30507 96.34512" />
    <path d="M 65.30507 95.33714 L 69.97665 98.2922 L 69.97665 76.26197 L 65.30507 79.38527" />
    <path d="M 66.38263 100.69507 L 69.97665 98.2922" />
    <path d="M 86.22263 65.40035 L 86.22263 87.43057 L 90.89422 84.30728 L 90.89422 62.27705 L 86.22263 65.40035 Z" />
    <path d="M 86.22263 81.35222 L 90.89422 84.30728" />
    <path d="M -203.83015 141.56625 A 20 13.00634 180 0 0 -197.77519 150.88953" />
    <path d="M 15.97724 260.05551 L 15.97724 269.0955" />
    <path d="M -78.78207 217.11971 L 23.01673 149.05976 L 76.77868 183.06736 L 76.77868 175.47073 L 43.46899 41.00509 A 30 16.33639 56.23437 0 0 23.01673 12.3204 L 23.01673 149.05976" />
    <path d="M 83.75121 178.40572 L 76.77868 183.06736" />
    <path d="M 70.49947 117.31406 L 130.39354 77.27049" />
    <path d="M 199.8014 137.04531 A 20 13.00634 180 0 0 203.83015 129.21664" />
    <path d="M 198.16667 138.28533 L 199.8014 137.04531 L 199.8014 146.0853" />
    <path d="M 16.88115 259.48799 L 198.16667 138.28533 L 198.16667 147.32532" />
    <path d="M 29.98925 7.65876 L 23.01673 12.3204" />
    <path d="M 25.80574 -7.14945 A 3.175 1.68172 122.31577 0 1 27.50305 -7.42076" />
    <path d="M 24.10843 -2.05428 A 3.175 1.68172 122.31577 0 1 25.80574 -7.14945" />
    <path d="M 83.75121 170.80909 L 76.77868 175.47073" />
    <path d="M 83.75121 178.40572 L 83.75121 170.80909 L 50.44151 36.34345 L 43.46899 41.00509" />
    <path d="M 50.44151 36.34345 A 30 16.33639 56.23437 0 0 29.98925 7.65876" />
    <path d="M 35.8413 -0.80136 A 3.175 1.68172 122.31577 0 1 37.53861 -1.07267 A 3.175 1.68172 122.31577 0 1 34.144 4.29381 A 3.175 1.68172 122.31577 0 1 35.8413 -0.80136 Z" />
    <path d="M -70.70255 116.6691 A 6.5 3.4429 122.31577 0 1 -71.17936 111.39992" />
    <path d="M -80.18774 105.70605 A 150 79.45149 122.31577 0 1 -80.5188 105.49446" />
    <path d="M -94.0505 101.9633 A 6.5 3.4429 122.31577 0 1 -92.75619 93.59912 A 150 79.45149 122.31577 0 1 -100.81866 76.65862" />
    <path d="M -106.47368 73.08149 A 6.5 3.4429 122.31577 0 1 -103.68899 63.1694 A 150 79.45149 122.31577 0 1 -103.87926 35.14838" />
    <path d="M -106.47368 33.50726 A 6.5 3.4429 122.31577 0 1 -102.11536 22.58024 A 150 79.45149 122.31577 0 1 -92.91068 -11.26517" />
    <path d="M -94.0505 -11.98617 A 6.5 3.4429 122.31577 0 1 -88.22512 -23.27272 A 150 79.45149 122.31577 0 1 -70.63649 -57.86982" />
    <path d="M -70.63563 -57.87125 A 6.5 3.4429 122.31577 0 1 -70.70255 -57.9116 A 6.5 3.4429 122.31577 0 1 -63.75294 -68.89809 A 6.5 3.4429 122.31577 0 1 -63.69362 -68.85893 L -55.28352 -63.53904" />
    <path d="M -63.69285 -68.86008 A 150 79.45149 122.31577 0 1 -39.99537 -99.60984 L -31.46514 -94.21396" />
    <path d="M -39.99537 -99.60984 A 6.5 3.4429 122.31577 0 1 -32.29633 -109.71626" />
    <path d="M -31.16345 -108.99965 A 150 79.45149 122.31577 0 1 -4.53107 -131.87429 L 3.99916 -126.47842" />
    <path d="M -4.53107 -131.87429 A 6.5 3.4429 122.31577 0 1 3.4748 -140.50388" />
    <path d="M 6.05826 -138.86969 A 150 79.45149 122.31577 0 1 31.47973 -150.77305 L 40.00996 -145.37717" />
    <path d="M 31.47973 -150.77305 A 6.5 3.4429 122.31577 0 1 39.24594 -157.54751" />
    <path d="M 44.86974 -153.99012 A 150 79.45149 122.31577 0 1 63.69362 -154.02663 L 72.22385 -148.63076" />
    <path d="M 63.69362 -154.02663 A 6.5 3.4429 122.31577 0 1 70.70255 -158.79144" />
    <path d="M 79.70959 -148.12638 A 150 79.45149 122.31577 0 1 80.18774 -147.82838" />
    <path d="M 89.04903 -142.22093 A 6.5 3.4429 122.31577 0 1 94.0505 -144.08563" />
    <path d="M 1.32654 -13.7177 A 11 5.82644 302.31577 0 0 3.01713 -15.39577" />
    <path d="M 6.41175 -20.76225 A 11 5.82644 302.31577 0 0 7.20369 -23.00876" />
    <path d="M -49.79245 117.91494 A 150 79.45149 122.31577 0 1 -55.16339 117.30017" />
    <path d="M -62.1054 115.59498 A 6.5 3.4429 302.31577 0 0 -62.17232 122.06498 L -70.70255 116.6691" />
    <path d="M -62.17232 122.06498 A 6.5 3.4429 302.31577 0 0 -55.16339 117.30017" />
    <path d="M -62.1054 115.59498 A 150 79.45149 122.31577 0 1 -71.65751 111.10192 L -80.18774 105.70605" />
    <path d="M -71.65751 111.10192 A 150 79.45149 122.31577 0 1 -79.69489 104.51616" />
    <path d="M -84.22596 98.99499 A 6.5 3.4429 302.31577 0 0 -85.52027 107.35917 L -94.0505 101.9633" />
    <path d="M -85.52027 107.35917 A 6.5 3.4429 302.31577 0 0 -79.69489 104.51616" />
    <path d="M -84.22596 98.99499 A 150 79.45149 122.31577 0 1 -93.58513 77.2365" />
    <path d="M -95.15876 68.56528 A 6.5 3.4429 302.31577 0 0 -97.94345 78.47737 L -106.47368 73.08149" />
    <path d="M -97.94345 78.47737 A 6.5 3.4429 302.31577 0 0 -93.58513 77.2365" />
    <path d="M -95.15876 68.56528 A 150 79.45149 122.31577 0 1 -95.15876 38.7515" />
    <path d="M -93.58513 27.97612 A 6.5 3.4429 302.31577 0 0 -97.94345 38.90313 L -106.47368 33.50726" />
    <path d="M -97.94345 38.90313 A 6.5 3.4429 302.31577 0 0 -95.15876 38.7515" />
    <path d="M -93.58513 27.97612 A 150 79.45149 122.31577 0 1 -84.22596 -6.29696" />
    <path d="M -79.69489 -17.87684 A 6.5 3.4429 302.31577 0 0 -85.52027 -6.59029 L -94.0505 -11.98617" />
    <path d="M -85.52027 -6.59029 A 6.5 3.4429 302.31577 0 0 -84.22596 -6.29696" />
    <path d="M -79.69489 -17.87684 A 150 79.45149 122.31577 0 1 -62.1054 -52.47538" />
    <path d="M -55.16339 -63.46306 A 6.5 3.4429 302.31577 0 0 -55.22271 -63.50222 L -63.75294 -68.89809" />
    <path d="M -55.22271 -63.50222 A 6.5 3.4429 302.31577 0 0 -62.17232 -52.51573 L -70.70255 -57.9116" />
    <path d="M -62.17232 -52.51573 A 6.5 3.4429 302.31577 0 0 -62.1054 -52.47538" />
    <path d="M -55.16339 -63.46306 A 150 79.45149 122.31577 0 1 -31.46514 -94.21396" />
    <path d="M -22.9495 -103.28416 A 6.5 3.4429 302.31577 0 0 -23.7661 -104.32038 L -32.29633 -109.71626" />
    <path d="M -23.7661 -104.32038 A 6.5 3.4429 302.31577 0 0 -31.46514 -94.21396" />
    <path d="M -22.9495 -103.28416 A 150 79.45149 122.31577 0 1 3.99916 -126.47842" />
    <path d="M 13.0613 -132.53713 A 6.5 3.4429 302.31577 0 0 12.00503 -135.108 L 3.4748 -140.50388" />
    <path d="M 12.00503 -135.108 A 6.5 3.4429 302.31577 0 0 3.99916 -126.47842" />
    <path d="M 13.0613 -132.53713 A 150 79.45149 122.31577 0 1 40.00996 -145.37717" />
    <path d="M 48.5256 -147.69363 A 6.5 3.4429 302.31577 0 0 47.77617 -152.15163 L 39.24594 -157.54751" />
    <path d="M 47.77617 -152.15163 A 6.5 3.4429 302.31577 0 0 40.00996 -145.37717" />
    <path d="M 48.5256 -147.69363 A 150 79.45149 122.31577 0 1 72.22385 -148.63076" />
    <path d="M 79.16586 -146.92557 A 6.5 3.4429 302.31577 0 0 79.23278 -153.39557 L 70.70255 -158.79144" />
    <path d="M 79.23278 -153.39557 A 6.5 3.4429 302.31577 0 0 72.22385 -148.63076" />
    <path d="M 79.16586 -146.92557 A 150 79.45149 122.31577 0 1 88.71797 -142.43251 L 80.18774 -147.82838" />
    <path d="M 88.71797 -142.43251 A 150 79.45149 122.31577 0 1 96.75535 -135.84675" />
    <path d="M 101.28642 -130.32558 A 6.5 3.4429 302.31577 0 0 102.58073 -138.68976 L 94.0505 -144.08563" />
    <path d="M 102.58073 -138.68976 A 6.5 3.4429 302.31577 0 0 96.75535 -135.84675" />
    <path d="M 101.28642 -130.32558 A 150 79.45149 122.31577 0 1 110.64559 -108.56709" />
    <path d="M 112.21922 -99.89587 A 6.5 3.4429 302.31577 0 0 115.00391 -109.80795 L 109.34889 -113.38509" />
    <path d="M 115.00391 -109.80795 A 6.5 3.4429 302.31577 0 0 110.64559 -108.56709" />
    <path d="M 112.21922 -99.89587 A 150 79.45149 122.31577 0 1 112.21922 -70.08209" />
    <path d="M 110.64559 -59.30671 A 6.5 3.4429 302.31577 0 0 115.00391 -70.23372 L 112.40949 -71.87484" />
    <path d="M 115.00391 -70.23372 A 6.5 3.4429 302.31577 0 0 112.21922 -70.08209" />
    <path d="M 110.64559 -59.30671 A 150 79.45149 122.31577 0 1 101.28642 -25.03363" />
    <path d="M 96.75535 -13.45375 A 6.5 3.4429 302.31577 0 0 102.58073 -24.7403 L 101.44091 -25.4613" />
    <path d="M 102.58073 -24.7403 A 6.5 3.4429 302.31577 0 0 101.28642 -25.03363" />
    <path d="M 96.75535 -13.45375 A 150 79.45149 122.31577 0 1 81.91626 16.46011" />
    <path d="M -74.49749 92.07166 A 2.5 1.32419 122.31577 0 1 -77.34355 96.1433 A 2.5 1.32419 122.31577 0 1 -74.67062 91.91772 A 2.5 1.32419 122.31577 0 1 -74.49749 92.07166 Z" />
    <path d="M -50.34397 60.73 A 2.5 1.32419 122.31577 0 1 -53.19003 64.80164 A 2.5 1.32419 122.31577 0 1 -50.5171 60.57606 A 2.5 1.32419 122.31577 0 1 -50.34397 60.73 Z" />
    <path d="M -26.19045 29.38834 A 2.5 1.32419 122.31577 0 1 -29.03651 33.45998 A 2.5 1.32419 122.31577 0 1 -26.36359 29.23441 A 2.5 1.32419 122.31577 0 1 -26.19045 29.38834 Z" />
    <path d="M -87.34192 48.43226 A 2.5 1.32419 122.31577 0 1 -90.42152 51.71046 A 2.5 1.32419 122.31577 0 1 -87.74859 47.48489 A 2.5 1.32419 122.31577 0 1 -87.34192 48.43226 Z" />
    <path d="M -74.49749 -12.38202 A 2.5 1.32419 122.31577 0 1 -77.34355 -10.20953 A 2.5 1.32419 122.31577 0 1 -74.67062 -14.43511 A 2.5 1.32419 122.31577 0 1 -74.49749 -12.38202 Z" />
    <path d="M -59.45184 29.7857 A 2.5 1.32419 122.31577 0 1 -62.53144 33.0639 A 2.5 1.32419 122.31577 0 1 -59.85851 28.83832 A 2.5 1.32419 122.31577 0 1 -59.45184 29.7857 Z" />
    <path d="M -50.34397 -13.33715 A 2.5 1.32419 122.31577 0 1 -53.19003 -11.16467 A 2.5 1.32419 122.31577 0 1 -50.5171 -15.39024 A 2.5 1.32419 122.31577 0 1 -50.34397 -13.33715 Z" />
    <path d="M -31.56176 11.13914 A 2.5 1.32419 122.31577 0 1 -34.64135 14.41734 A 2.5 1.32419 122.31577 0 1 -31.96843 10.19176 A 2.5 1.32419 122.31577 0 1 -31.56176 11.13914 Z" />
    <path d="M -26.19045 -14.29229 A 2.5 1.32419 122.31577 0 1 -29.03651 -12.1198 A 2.5 1.32419 122.31577 0 1 -26.36359 -16.34538 A 2.5 1.32419 122.31577 0 1 -26.19045 -14.29229 Z" />
    <path d="M -11.51577 -40.09161 A 2.5 1.32419 122.31577 0 1 -13.72379 -39.04084 A 2.5 1.32419 122.31577 0 1 -11.05087 -43.26641 A 2.5 1.32419 122.31577 0 1 -11.51577 -40.09161 Z" />
    <path d="M -25.46081 -57.08383 A 2.5 1.32419 122.31577 0 1 -27.66883 -56.03306 A 2.5 1.32419 122.31577 0 1 -24.99591 -60.25863 A 2.5 1.32419 122.31577 0 1 -25.46081 -57.08383 Z" />
    <path d="M -39.40585 -74.07605 A 2.5 1.32419 122.31577 0 1 -41.61387 -73.02528 A 2.5 1.32419 122.31577 0 1 -38.94095 -77.25085 A 2.5 1.32419 122.31577 0 1 -39.40585 -74.07605 Z" />
    <path d="M 67.40443 -17.99344 A 2.5 1.32419 122.31577 0 1 70.25049 -20.16592 A 2.5 1.32419 122.31577 1 1 67.57757 -15.94035 A 2.5 1.32419 122.31577 0 1 67.40443 -17.99344 Z" />
    <path d="M 91.55795 -18.94857 A 2.5 1.32419 122.31577 0 1 94.40401 -21.12105 A 2.5 1.32419 122.31577 1 1 91.73108 -16.89548 A 2.5 1.32419 122.31577 0 1 91.55795 -18.94857 Z" />
    <path d="M 104.40238 -79.76285 A 2.5 1.32419 122.31577 0 1 107.48198 -83.04105 A 2.5 1.32419 122.31577 0 1 104.80905 -78.81548 A 2.5 1.32419 122.31577 0 1 104.40238 -79.76285 Z" />
    <path d="M 8.53023 -24.02159 A 11 5.82644 122.31577 0 1 10.80405 -25.16614" />
    <path d="M 0.91973 -9.54021 A 11 5.82644 122.31577 0 1 8.53023 -24.02159" />
    <path d="M 8.53023 -59.34592 A 2.5 1.32419 122.31577 0 1 7.19377 -59.13229 A 2.5 1.32419 122.31577 0 1 9.86669 -63.35787 A 2.5 1.32419 122.31577 0 1 8.53023 -59.34592 Z" />
    <path d="M 28.57623 -66.89604 A 2.5 1.32419 122.31577 0 1 28.11133 -67.01068 A 2.5 1.32419 122.31577 0 1 30.78425 -71.23626 A 2.5 1.32419 122.31577 0 1 28.57623 -66.89604 Z" />
    <path d="M 43.25091 -60.71893 A 2.5 1.32419 122.31577 0 1 46.09697 -64.79057 A 2.5 1.32419 122.31577 1 1 43.42405 -60.565 A 2.5 1.32419 122.31577 0 1 43.25091 -60.71893 Z" />
    <path d="M 48.62222 -42.46973 A 2.5 1.32419 122.31577 0 1 51.70181 -45.74793 A 2.5 1.32419 122.31577 0 1 49.02889 -41.52235 A 2.5 1.32419 122.31577 0 1 48.62222 -42.46973 Z" />
    <path d="M 8.53023 -89.73245 A 2.5 1.32419 122.31577 0 1 7.19377 -89.51882 A 2.5 1.32419 122.31577 0 1 9.86669 -93.74439 A 2.5 1.32419 122.31577 0 1 8.53023 -89.73245 Z" />
    <path d="M 8.53023 -120.11897 A 2.5 1.32419 122.31577 0 1 7.19377 -119.90534 A 2.5 1.32419 122.31577 0 1 9.86669 -124.13091 A 2.5 1.32419 122.31577 0 1 8.53023 -120.11897 Z" />
    <path d="M 42.52127 -102.53483 A 2.5 1.32419 122.31577 0 1 42.05637 -102.64946 A 2.5 1.32419 122.31577 0 1 44.72929 -106.87504 A 2.5 1.32419 122.31577 0 1 42.52127 -102.53483 Z" />
    <path d="M 56.46631 -138.17361 A 2.5 1.32419 122.31577 0 1 56.00141 -138.28825 A 2.5 1.32419 122.31577 0 1 58.67433 -142.51382 A 2.5 1.32419 122.31577 0 1 56.46631 -138.17361 Z" />
    <path d="M 76.5123 -61.11629 A 2.5 1.32419 122.31577 0 1 79.5919 -64.39449 A 2.5 1.32419 122.31577 0 1 76.91897 -60.16891 A 2.5 1.32419 122.31577 0 1 76.5123 -61.11629 Z" />
    <path d="M 67.40443 -92.06059 A 2.5 1.32419 122.31577 0 1 70.25049 -96.13223 A 2.5 1.32419 122.31577 1 1 67.57757 -91.90665 A 2.5 1.32419 122.31577 0 1 67.40443 -92.06059 Z" />
    <path d="M 91.55795 -123.40225 A 2.5 1.32419 122.31577 0 1 94.40401 -127.47389 A 2.5 1.32419 122.31577 1 1 91.73108 -123.24831 A 2.5 1.32419 122.31577 0 1 91.55795 -123.40225 Z" />
    <path d="M -92.75619 93.59912 L -84.22596 98.99499" />
    <path d="M -103.68899 63.1694 L -95.15876 68.56528" />
    <path d="M -102.11536 22.58024 L -93.58513 27.97612" />
    <path d="M -88.22512 -23.27272 L -79.69489 -17.87684" />
    <path d="M -70.63563 -57.87125 L -62.23744 -52.55891" />
    <path d="M 6.98108 -20.40211 L 5.5131 -21.3307" />
    <path d="M 3.58646 -15.03563 L 2.11848 -15.96422" />
    <path d="M -203.83015 141.56625 L -203.83015 132.52626" />
    <path d="M 37.53861 -1.07267 L 27.50305 -7.42076" />
    <path d="M 34.144 4.29381 L 24.10843 -2.05428" />
</svg>