<svg version="1.1" xmlns="http://www.w3.org/2000/svg" viewBox="-104.0352831846295 -205.88972030678897 159.28598014372523 450.1955321850397" fill="none" stroke="black" stroke-width="0.6%" vector-effect="non-scaling-stroke">
    <path d="M -69.16414 243.30581 L -78.57279 240.544 L -78.57279 234.75246 L -37.20526 -36.15113 A 30 5.88621 106.35905 0 1 -19.30584 -79.93501 L -9.89719 -77.1732 A 30 5.88621 286.35905 0 0 -27.79661 -33.38932 L -37.20526 -36.15113" />
    <path d="M -69.16414 237.51427 L -78.57279 234.75246" />
    <path d="M -69.16414 243.30581 L -69.16414 237.51427 L -27.79661 -33.38932" />
    <path d="M 32.47041 13.20279 L 21.23519 38.63959" />
    <path d="M -18.56976 128.75893 L -69.16414 243.30581" />
    <path d="M -8.89712 -76.17819 A 30 5.88621 286.35905 0 0 -9.89719 -77.1732" />
    <path d="M -8.89712 -76.17819 L 32.47041 7.41125 L 32.47041 13.20279" />
    <path d="M -19.70199 -4.7789 L -19.70199 128.42657 L 50.86288 149.14015 L 50.86288 143.34861 L 7.63718 16.29997 A 30 16.34718 23.83064 0 0 -19.70199 -4.7789 Z" />
    <path d="M -16.31418 -12.449 L -19.70199 -4.7789" />
    <path d="M 54.2507 141.47005 L 50.86288 149.14015" />
    <path d="M 11.025 8.62987 A 30 16.34718 23.83064 0 0 -16.31418 -12.449" />
    <path d="M 54.2507 135.67851 L 11.025 8.62987 L 7.63718 16.29997" />
    <path d="M 54.2507 141.47005 L 54.2507 135.67851 L 50.86288 143.34861" />
    <path d="M 2.70748 -65.91741 A 6.5 1.27535 106.35905 0 1 2.88242 -65.92374 A 6.5 1.27535 106.35905 0 1 1.0872 -56.00334" />
    <path d="M 11.25389 -102.67849 A 150 29.43104 106.35905 0 1 2.70748 -65.91741" />
    <path d="M 13.45545 -114.18167 A 6.5 1.27535 106.35905 0 1 14.22675 -114.7197 A 6.5 1.27535 106.35905 0 1 11.25389 -102.67849" />
    <path d="M 18.0029 -145.83595 A 150 29.43104 106.35905 0 1 13.45545 -114.18167" />
    <path d="M 18.7675 -154.9799 A 6.5 1.27535 106.35905 0 1 20.26295 -156.73699 A 6.5 1.27535 106.35905 0 1 18.0029 -145.83595" />
    <path d="M 18.7675 -177.70941 A 150 29.43104 106.35905 0 1 18.7675 -154.9799" />
    <path d="M 18.0029 -183.39123 A 6.5 1.27535 106.35905 0 1 20.26295 -186.90771 A 6.5 1.27535 106.35905 0 1 18.7675 -177.70941" />
    <path d="M 13.45545 -194.45446 A 150 29.43104 106.35905 0 1 18.0029 -183.39123" />
    <path d="M 11.25389 -195.98884 A 6.5 1.27535 106.35905 0 1 14.22675 -201.59283 L 3.03046 -204.87938 A 6.5 1.27535 286.35905 0 0 0.22198 -199.80204" />
    <path d="M 14.22675 -201.59283 A 6.5 1.27535 106.35905 0 1 13.45545 -194.45446" />
    <path d="M 2.70748 -194.05139 A 150 29.43104 106.35905 0 1 10.6353 -196.20921 L 3.21465 -198.38747" />
    <path d="M 10.6353 -196.20921 A 150 29.43104 106.35905 0 1 11.25389 -195.98884" />
    <path d="M -0.66551 -191.25327 A 6.5 1.27535 106.35905 0 1 2.88242 -199.0211 L -8.31388 -202.30765 A 6.5 1.27535 286.35905 0 0 -11.8618 -194.53982 L -0.66551 -191.25327 Z" />
    <path d="M 2.88242 -199.0211 A 6.5 1.27535 106.35905 0 1 2.70748 -194.05139" />
    <path d="M -12.18005 -176.54883 A 150 29.43104 106.35905 0 1 -0.66551 -191.25327" />
    <path d="M -16.31764 -169.7557 A 6.5 1.27535 106.35905 0 1 -12.40177 -179.50271 L -23.59806 -182.78926 A 6.5 1.27535 286.35905 0 0 -27.51394 -173.04226 L -16.31764 -169.7557 Z" />
    <path d="M -12.40177 -179.50271 A 6.5 1.27535 106.35905 0 1 -12.18005 -176.54883" />
    <path d="M -29.4115 -144.05785 A 150 29.43104 106.35905 0 1 -16.31764 -169.7557" />
    <path d="M -33.81463 -134.08906 A 6.5 1.27535 106.35905 0 1 -29.7823 -145.39187 L -40.97859 -148.67842 A 6.5 1.27535 286.35905 0 0 -45.01092 -137.37561 L -33.81463 -134.08906 Z" />
    <path d="M -29.7823 -145.39187 A 6.5 1.27535 106.35905 0 1 -29.4115 -144.05785" />
    <path d="M -46.90848 -100.49732 A 150 29.43104 106.35905 0 1 -33.81463 -134.08906" />
    <path d="M -51.04607 -88.55526 A 6.5 1.27535 106.35905 0 1 -47.16283 -100.80284 L -58.35913 -104.0894 A 6.5 1.27535 286.35905 0 0 -62.24236 -91.84181 L -51.04607 -88.55526 Z" />
    <path d="M -47.16283 -100.80284 A 6.5 1.27535 106.35905 0 1 -46.90848 -100.49732" />
    <path d="M -62.56061 -51.12131 A 150 29.43104 106.35905 0 1 -51.04607 -88.55526" />
    <path d="M -65.93361 -38.64636 A 6.5 1.27535 106.35905 0 1 -66.10854 -38.64003 L -77.30483 -41.92658" />
    <path d="M -66.10854 -38.64003 A 6.5 1.27535 106.35905 0 1 -62.56061 -51.12131" />
    <path d="M -74.48001 -1.88527 A 150 29.43104 106.35905 0 1 -65.93361 -38.64636" />
    <path d="M -76.68158 9.6179 A 6.5 1.27535 106.35905 0 1 -77.45288 10.15593 L -88.64917 6.86938" />
    <path d="M -77.45288 10.15593 A 6.5 1.27535 106.35905 0 1 -74.48001 -1.88527" />
    <path d="M -81.22903 41.27218 A 150 29.43104 106.35905 0 1 -76.68158 9.6179" />
    <path d="M -81.99362 50.41613 A 6.5 1.27535 106.35905 0 1 -83.48907 52.17322 L -94.68537 48.88667" />
    <path d="M -83.48907 52.17322 A 6.5 1.27535 106.35905 0 1 -81.22903 41.27218" />
    <path d="M -81.99362 73.14564 A 150 29.43104 106.35905 0 1 -81.99362 50.41613" />
    <path d="M -81.22903 78.82746 A 6.5 1.27535 106.35905 0 1 -83.48907 82.34395 L -94.68537 79.05739" />
    <path d="M -83.48907 82.34395 A 6.5 1.27535 106.35905 0 1 -81.99362 73.14564" />
    <path d="M -76.68158 89.89069 A 150 29.43104 106.35905 0 1 -81.22903 78.82746" />
    <path d="M -74.48001 91.42507 A 6.5 1.27535 106.35905 0 1 -77.45288 97.02906 L -88.64917 93.74251" />
    <path d="M -77.45288 97.02906 A 6.5 1.27535 106.35905 0 1 -76.68158 89.89069" />
    <path d="M -65.93361 89.48762 A 150 29.43104 106.35905 0 1 -73.86142 91.64544 L -74.49083 91.46069" />
    <path d="M -73.86142 91.64544 A 150 29.43104 106.35905 0 1 -74.48001 91.42507" />
    <path d="M -62.56061 86.6895 A 6.5 1.27535 106.35905 0 1 -66.10854 94.45733 L -74.64439 91.95172" />
    <path d="M -66.10854 94.45733 A 6.5 1.27535 106.35905 0 1 -65.93361 89.48762" />
    <path d="M -54.49833 77.09601 A 150 29.43104 106.35905 0 1 -62.56061 86.6895" />
    <path d="M -93.62663 230.33356 L -72.58763 92.55546" />
    <path d="M -93.62663 236.1251 L -93.62663 230.33356 L -103.03528 227.57175 L -82.85883 95.4422" />
    <path d="M -70.93871 184.7591 L -93.62663 236.1251 L -103.03528 233.36329 L -103.03528 227.57175" />
    <path d="M -21.78528 -182.25714 A 150 29.43104 106.35905 0 1 -11.8618 -194.53982" />
    <path d="M -40.11279 -148.42427 A 150 29.43104 106.35905 0 1 -27.51394 -173.04226" />
    <path d="M -58.0302 -103.99284 A 150 29.43104 106.35905 0 1 -45.01092 -137.37561" />
    <path d="M -73.75691 -54.40786 L -62.56061 -51.12131" />
    <path d="M -73.75691 -54.40786 A 150 29.43104 106.35905 0 1 -62.24236 -91.84181" />
    <path d="M -73.75691 -54.40786 A 6.5 1.27535 286.35905 0 0 -77.30483 -41.92658" />
    <path d="M -85.67631 -5.17183 L -74.48001 -1.88527" />
    <path d="M -85.67631 -5.17183 A 150 29.43104 106.35905 0 1 -77.14389 -41.87934" />
    <path d="M -85.67631 -5.17183 A 6.5 1.27535 286.35905 0 0 -88.64917 6.86938" />
    <path d="M -92.42532 37.98563 L -81.22903 41.27218" />
    <path d="M -92.42532 37.98563 A 150 29.43104 106.35905 0 1 -88.00829 7.0575" />
    <path d="M -92.42532 37.98563 A 6.5 1.27535 286.35905 0 0 -94.68537 48.88667" />
    <path d="M -93.18991 69.85909 L -81.99362 73.14564" />
    <path d="M -93.18991 69.85909 A 150 29.43104 106.35905 0 1 -93.32153 49.28701" />
    <path d="M -93.18991 69.85909 A 6.5 1.27535 286.35905 0 0 -94.68537 79.05739" />
    <path d="M -87.87787 86.60413 L -76.68158 89.89069" />
    <path d="M -87.87787 86.60413 A 150 29.43104 106.35905 0 1 -91.35116 80.03611" />
    <path d="M -87.87787 86.60413 A 6.5 1.27535 286.35905 0 0 -88.64917 93.74251" />
    <path d="M 2.88242 -65.92374 L 2.72147 -65.97098" />
    <path d="M 14.22675 -114.7197 L 13.58587 -114.90782" />
    <path d="M 20.26295 -156.73699 L 18.89911 -157.13733" />
    <path d="M 20.26295 -186.90771 L 16.92874 -187.88643" />
</svg>