<svg version="1.1" xmlns="http://www.w3.org/2000/svg" viewBox="-96.01092072208263 -191.01501506670414 192.0218414441652 443.035723494301" fill="none" stroke="black" stroke-width="0.6%" vector-effect="non-scaling-stroke">
    <path d="M -61.75962 251.02071 L -70.2856 246.90826 L -70.2856 240.73832 L -6.47648 -30.01854" />
    <path d="M -61.75962 244.85076 L -70.2856 240.73832" />
    <path d="M -61.75962 251.02071 L -61.75962 244.85076 L 2.04949 -25.9061 A 30 9.67266 115.75001 0 1 29.65901 -64.82857 A 30 9.67266 115.75001 0 1 31.2018 -63.33701 L 95.01092 43.56091 L 95.01092 49.73086 L 62.44279 91.5476" />
    <path d="M 16.28193 150.81711 L -61.75962 251.02071" />
    <path d="M 2.04949 -25.9061 L -6.47648 -30.01854" />
    <path d="M 14.53537 8.06587 L 14.53537 149.97467 L 78.48017 180.818 L 78.48017 174.64805 L 39.30972 33.92224 A 30 15.78144 37.91252 0 0 14.53537 8.06587 Z" />
    <path d="M 19.76106 1.35621 L 14.53537 8.06587" />
    <path d="M 21.13304 -68.94101 A 30 9.67266 295.75001 0 0 -6.47648 -30.01854" />
    <path d="M 44.5354 27.21257 L 39.30972 33.92224" />
    <path d="M 44.5354 27.21257 A 30 15.78144 37.91252 0 0 19.76106 1.35621" />
    <path d="M 83.70586 167.93839 L 44.5354 27.21257" />
    <path d="M 83.70586 174.10833 L 83.70586 167.93839 L 78.48017 174.64805" />
    <path d="M 83.70586 174.10833 L 78.48017 180.818" />
    <path d="M -33.92765 86.46313 A 150 48.3633 115.75001 0 1 -43.13234 91.09377 A 6.5 2.09574 115.75001 0 1 -48.60495 97.83849 A 6.5 2.09574 115.75001 0 1 -48.33516 92.61953 A 150 48.3633 115.75001 0 1 -60.56278 91.49856 A 150 48.3633 115.75001 0 1 -61.51793 90.99644 A 6.5 2.09574 115.75001 0 1 -66.10351 95.68404 A 6.5 2.09574 115.75001 0 1 -64.91383 88.412 A 150 48.3633 115.75001 0 1 -71.92823 74.66405 A 6.5 2.09574 115.75001 0 1 -75.41429 77.43527 A 6.5 2.09574 115.75001 0 1 -73.10761 68.28113 A 150 48.3633 115.75001 0 1 -73.10761 44.06652 A 6.5 2.09574 115.75001 0 1 -75.41429 45.29327 L -85.5602 40.39946" />
    <path d="M -59.27788 92.04889 A 6.5 2.09574 295.75001 0 0 -58.75086 92.94469" />
    <path d="M -75.05973 83.51819 L -64.91383 88.412" />
    <path d="M -75.05973 83.51819 A 6.5 2.09574 295.75001 0 0 -76.24941 90.79023" />
    <path d="M -75.05973 83.51819 A 150 48.3633 115.75001 0 1 -80.41747 75.02202" />
    <path d="M -83.25352 63.38732 L -73.10761 68.28113" />
    <path d="M -83.25352 63.38732 A 6.5 2.09574 295.75001 0 0 -85.5602 72.54147" />
    <path d="M -83.25352 63.38732 A 150 48.3633 115.75001 0 1 -83.45652 41.41416" />
    <path d="M -75.41429 45.29327 A 6.5 2.09574 115.75001 0 1 -71.92823 34.655 A 150 48.3633 115.75001 0 1 -64.91383 2.89437 A 6.5 2.09574 115.75001 0 1 -66.10351 3.13482 L -76.24941 -1.75899" />
    <path d="M -82.07414 29.76119 L -71.92823 34.655" />
    <path d="M -82.07414 29.76119 A 6.5 2.09574 295.75001 0 0 -85.5602 40.39946" />
    <path d="M -82.07414 29.76119 A 150 48.3633 115.75001 0 1 -75.26087 -1.28217" />
    <path d="M -66.10351 3.13482 A 6.5 2.09574 115.75001 0 1 -61.51793 -8.41058 A 150 48.3633 115.75001 0 1 -48.33516 -43.88643 A 6.5 2.09574 115.75001 0 1 -48.60495 -43.95514 L -58.75086 -48.84894" />
    <path d="M -71.66384 -13.30439 L -61.51793 -8.41058" />
    <path d="M -71.66384 -13.30439 A 6.5 2.09574 295.75001 0 0 -76.24941 -1.75899" />
    <path d="M -71.66384 -13.30439 A 150 48.3633 115.75001 0 1 -58.50263 -48.72921" />
    <path d="M -48.60495 -43.95514 A 6.5 2.09574 115.75001 0 1 -43.13234 -55.72127 A 150 48.3633 115.75001 0 1 -25.37125 -90.63342 A 6.5 2.09574 115.75001 0 1 -19.38142 -102.00593 L -29.52733 -106.89974 A 6.5 2.09574 295.75001 0 0 -35.51715 -95.52723 L -25.37125 -90.63342" />
    <path d="M -53.27825 -60.61508 L -43.13234 -55.72127" />
    <path d="M -53.27825 -60.61508 A 6.5 2.09574 295.75001 0 0 -58.75086 -48.84894" />
    <path d="M -53.27825 -60.61508 A 150 48.3633 115.75001 0 1 -35.51715 -95.52723" />
    <path d="M -19.38142 -102.00593 A 6.5 2.09574 115.75001 0 1 -18.98905 -101.5707 A 150 48.3633 115.75001 0 1 1.20813 -131.70824 A 6.5 2.09574 115.75001 0 1 7.42792 -142.00993 L -2.71799 -146.90373 A 6.5 2.09574 295.75001 0 0 -8.93778 -136.60204 L 1.20813 -131.70824" />
    <path d="M -29.0199 -106.65499 A 150 48.3633 115.75001 0 1 -8.93778 -136.60204" />
    <path d="M 7.42792 -142.00993 A 6.5 2.09574 115.75001 0 1 7.99992 -140.42875 A 150 48.3633 115.75001 0 1 28.1971 -162.15664 A 6.5 2.09574 115.75001 0 1 34.23726 -170.85112 L 24.09135 -175.74492 A 6.5 2.09574 295.75001 0 0 18.05119 -167.05045 L 28.1971 -162.15664" />
    <path d="M -1.38238 -146.25951 A 150 48.3633 115.75001 0 1 18.05119 -167.05045" />
    <path d="M 34.23726 -170.85112 A 6.5 2.09574 115.75001 0 1 34.5793 -167.60857 A 150 48.3633 115.75001 0 1 52.34039 -178.30611 A 6.5 2.09574 115.75001 0 1 57.813 -185.05083 L 47.66709 -189.94464 A 6.5 2.09574 295.75001 0 0 42.19448 -183.19992 L 52.34039 -178.30611" />
    <path d="M 26.88779 -174.39608 A 150 48.3633 115.75001 0 1 42.19448 -183.19992" />
    <path d="M 57.813 -185.05083 A 6.5 2.09574 115.75001 0 1 57.54321 -179.83187 A 150 48.3633 115.75001 0 1 69.77083 -178.7109 L 59.62493 -183.6047" />
    <path d="M 58.34002 -184.15504 A 150 48.3633 115.75001 0 1 59.62493 -183.6047" />
    <path d="M 69.77083 -178.7109 A 150 48.3633 115.75001 0 1 70.72598 -178.20878 A 6.5 2.09574 115.75001 0 1 75.31156 -182.89638 L 65.16565 -187.79018 A 6.5 2.09574 295.75001 0 0 60.59678 -183.13594" />
    <path d="M 75.31156 -182.89638 A 6.5 2.09574 115.75001 0 1 74.12188 -175.62434 A 150 48.3633 115.75001 0 1 81.13628 -161.87639 A 6.5 2.09574 115.75001 0 1 84.62234 -164.64761 L 79.47961 -167.12817" />
    <path d="M 84.62234 -164.64761 A 6.5 2.09574 115.75001 0 1 82.31566 -155.49347 A 150 48.3633 115.75001 0 1 82.31566 -131.27886 A 6.5 2.09574 115.75001 0 1 84.62234 -132.50561 L 82.51866 -133.5203" />
    <path d="M 84.62234 -132.50561 A 6.5 2.09574 115.75001 0 1 81.13628 -121.86734 A 150 48.3633 115.75001 0 1 74.12188 -90.10671 A 6.5 2.09574 115.75001 0 1 75.31156 -90.34716 L 74.32302 -90.82397" />
    <path d="M 75.31156 -90.34716 A 6.5 2.09574 115.75001 0 1 70.72598 -78.80176 A 150 48.3633 115.75001 0 1 57.54321 -43.32591 A 6.5 2.09574 115.75001 0 1 57.813 -43.2572 L 57.56478 -43.37693" />
    <path d="M 57.813 -43.2572 A 6.5 2.09574 115.75001 0 1 52.34039 -31.49107 A 150 48.3633 115.75001 0 1 51.41436 -29.47538" />
    <path d="M -95.01092 234.98218 L -86.48495 239.09462 L -62.70149 208.55721" />
    <path d="M -63.16771 93.69411 L -95.01092 228.81223 L -86.48495 232.92468 L -86.48495 239.09462" />
    <path d="M -95.01092 228.81223 L -95.01092 234.98218" />
    <path d="M -54.03231 95.22064 L -86.48495 232.92468" />
    <path d="M -67.53693 112.23373 L -83.70586 104.43476 L -83.70586 98.26481 L -77.16281 81.0699" />
    <path d="M 21.13304 -68.94101 L 29.65901 -64.82857" />
    <path d="M -48.60495 97.83849 L -58.75086 92.94469" />
    <path d="M -60.56278 91.49856 L -61.53464 91.02979" />
    <path d="M -66.10351 95.68404 L -76.24941 90.79023" />
    <path d="M -75.41429 77.43527 L -85.5602 72.54147" />
</svg>