<svg version="1.1" xmlns="http://www.w3.org/2000/svg" viewBox="-204.8301532791232 -187.80097660594373 409.6603065582465 497.33329359166777" fill="none" stroke="black" stroke-width="0.6%" vector-effect="non-scaling-stroke">
    <path d="M -197.77519 162.81591 L -197.77519 170.86709 L -11.40042 304.36185 A 20 14.72757 180 0 0 15.97724 304.7162 L 16.88115 304.07357 L 198.16667 166.8312 L 199.8014 165.42707 A 20 14.72757 180 0 0 203.83015 156.56238 L 203.83015 148.51119 A 20 14.72757 180 0 0 197.77519 137.95409 L 123.22528 84.55619" />
    <path d="M -11.40042 296.31067 L -11.40042 304.36185" />
    <path d="M -85.95033 242.91277 L -11.40042 296.31067 A 20 14.72757 180 0 0 15.97724 296.66502 L 16.88115 296.02239 L 16.88115 304.07357" />
    <path d="M -85.95033 242.91277 L -85.95033 239.52992 L -93.11859 234.3955 L -7.97944 -37.11913" />
    <path d="M -93.11859 237.77835 L -93.11859 234.3955" />
    <path d="M -106.73828 228.02297 L -93.11859 237.77835" />
    <path d="M -106.73828 224.64012 L -106.73828 228.02297" />
    <path d="M -113.90654 219.50571 L -106.73828 224.64012" />
    <path d="M -113.90654 219.50571 L -113.90654 222.88855" />
    <path d="M -197.77519 162.81591 L -113.90654 222.88855" />
    <path d="M -199.8014 143.39411 A 20 14.72757 180 0 0 -203.83015 152.25881 A 20 14.72757 180 0 0 -197.77519 162.81591" />
    <path d="M -203.83015 160.30999 A 20 14.72757 180 0 0 -197.77519 170.86709" />
    <path d="M 15.97724 296.66502 L 15.97724 304.7162" />
    <path d="M -198.16667 141.98998 L -199.8014 143.39411" />
    <path d="M -93.97001 63.1078 L -198.16667 141.98998" />
    <path d="M -86.25871 212.51889 L -106.73828 228.02297" />
    <path d="M -85.95033 242.91277 L 15.84847 165.8459 L 69.61042 204.354 L 69.61042 197.5883 L 36.67764 40.40357 A 30 14.54949 52.87242 0 0 15.84847 10.23483 L 15.84847 165.8459" />
    <path d="M 76.58294 199.07545 L 69.61042 204.354" />
    <path d="M 63.48283 129.78426 L 123.22528 84.55619" />
    <path d="M 199.8014 157.37589 A 20 14.72757 180 0 0 203.83015 148.51119" />
    <path d="M 198.16667 158.78002 L 199.8014 157.37589 L 199.8014 165.42707" />
    <path d="M 16.88115 296.02239 L 198.16667 158.78002 L 198.16667 166.8312" />
    <path d="M 123.22528 81.17334 L 123.22528 84.55619" />
    <path d="M -70.65967 81.58845 L -113.90654 219.50571" />
    <path d="M -63.49141 86.72286 L -106.73828 224.64012" />
    <path d="M 28.9384 -68.75998 A 30 14.15219 305.61291 0 0 -7.97944 -37.11913" />
    <path d="M 22.82099 4.95628 L 15.84847 10.23483" />
    <path d="M 38.08613 -61.43196 L 123.22528 81.17334" />
    <path d="M -0.81118 -31.98472 A 30 14.15219 125.61291 0 1 36.10666 -63.62557 A 30 14.15219 125.61291 0 1 38.08613 -61.43196" />
    <path d="M -85.95033 239.52992 L -0.81118 -31.98472 L -7.97944 -37.11913" />
    <path d="M 76.58294 192.30975 L 69.61042 197.5883" />
    <path d="M 76.58294 199.07545 L 76.58294 192.30975 L 43.65016 35.12501 L 36.67764 40.40357" />
    <path d="M 43.65016 35.12501 A 30 14.54949 52.87242 0 0 22.82099 4.95628" />
    <path d="M 72.22385 -14.19979 A 150 70.76096 125.61291 0 1 69.06443 -9.54432" />
    <path d="M -71.01273 81.33556 A 6.5 3.06631 125.61291 0 1 -71.75768 79.3437" />
    <path d="M -94.36069 72.0115 A 6.5 3.06631 125.61291 0 1 -92.75619 64.52267 A 150 70.76096 125.61291 0 1 -99.81419 53.28869" />
    <path d="M -106.78387 48.29651 A 6.5 3.06631 125.61291 0 1 -103.68899 39.18823 A 150 70.76096 125.61291 0 1 -103.96577 15.0695" />
    <path d="M -106.78387 13.05097 A 6.5 3.06631 125.61291 0 1 -102.11536 2.78447 A 150 70.76096 125.61291 0 1 -93.03314 -28.5231" />
    <path d="M -94.36069 -29.47398 A 6.5 3.06631 125.61291 0 1 -88.22512 -40.29778 A 150 70.76096 125.61291 0 1 -70.66753 -73.90195" />
    <path d="M -71.01273 -74.14921 A 6.5 3.06631 125.61291 0 1 -63.69362 -84.86216 A 150 70.76096 125.61291 0 1 -39.99537 -116.07929 L -31.46514 -109.96934" />
    <path d="M -39.99537 -116.07929 A 6.5 3.06631 125.61291 0 1 -31.98615 -126.15484" />
    <path d="M -31.33438 -125.688 A 150 70.76096 125.61291 0 1 -4.53107 -150.5459 L 3.99916 -144.43594" />
    <path d="M -4.53107 -150.5459 A 6.5 3.06631 125.61291 0 1 3.78499 -159.35573" />
    <path d="M 5.52288 -158.11094 A 150 70.76096 125.61291 0 1 31.47973 -173.19708 L 40.00996 -167.08713" />
    <path d="M 31.47973 -173.19708 A 6.5 3.06631 125.61291 0 1 39.55613 -180.31598" />
    <path d="M 43.19203 -177.71169 A 150 70.76096 125.61291 0 1 63.69362 -181.30079 L 72.22385 -175.19084" />
    <path d="M 63.69362 -181.30079 A 6.5 3.06631 125.61291 0 1 71.01273 -186.50747" />
    <path d="M 80.28792 -178.40566 A 150 70.76096 125.61291 0 1 87.34592 -174.53139" />
    <path d="M 88.23583 -173.89398 A 6.5 3.06631 125.61291 0 1 94.36069 -177.18341" />
    <path d="M -45.09714 81.2518 A 150 70.76096 125.61291 0 1 -55.16339 82.23883" />
    <path d="M -62.1054 81.84203 A 6.5 3.06631 305.61291 0 0 -62.4825 87.44551 L -71.01273 81.33556" />
    <path d="M -62.4825 87.44551 A 6.5 3.06631 305.61291 0 0 -55.16339 82.23883" />
    <path d="M -62.1054 81.84203 A 150 70.76096 125.61291 0 1 -78.81569 75.46944 L -79.7056 74.83202" />
    <path d="M -78.81569 75.46944 A 150 70.76096 125.61291 0 1 -79.69489 74.81763" />
    <path d="M -84.22596 70.63262 A 6.5 3.06631 305.61291 0 0 -85.83046 78.12145 L -94.36069 72.0115" />
    <path d="M -85.83046 78.12145 A 6.5 3.06631 305.61291 0 0 -79.69489 74.81763" />
    <path d="M -84.22596 70.63262 A 150 70.76096 125.61291 0 1 -93.58513 52.76662" />
    <path d="M -95.15876 45.29819 A 6.5 3.06631 305.61291 0 0 -98.25364 54.40646 L -106.78387 48.29651" />
    <path d="M -98.25364 54.40646 A 6.5 3.06631 305.61291 0 0 -93.58513 52.76662" />
    <path d="M -95.15876 45.29819 A 150 70.76096 125.61291 0 1 -95.15876 18.74549" />
    <path d="M -93.58513 8.89443 A 6.5 3.06631 305.61291 0 0 -98.25364 19.16093 L -106.78387 13.05097" />
    <path d="M -98.25364 19.16093 A 6.5 3.06631 305.61291 0 0 -95.15876 18.74549" />
    <path d="M -93.58513 8.89443 A 150 70.76096 125.61291 0 1 -84.22596 -23.14231" />
    <path d="M -79.69489 -34.18782 A 6.5 3.06631 305.61291 0 0 -85.83046 -23.36403 L -94.36069 -29.47398" />
    <path d="M -85.83046 -23.36403 A 6.5 3.06631 305.61291 0 0 -84.22596 -23.14231" />
    <path d="M -79.69489 -34.18782 A 150 70.76096 125.61291 0 1 -62.1054 -67.8445" />
    <path d="M -55.16339 -78.75221 A 6.5 3.06631 305.61291 0 0 -62.4825 -68.03926 L -71.01273 -74.14921" />
    <path d="M -62.4825 -68.03926 A 6.5 3.06631 305.61291 0 0 -62.1054 -67.8445" />
    <path d="M -55.16339 -78.75221 A 150 70.76096 125.61291 0 1 -31.46514 -109.96934" />
    <path d="M -22.9495 -119.42361 A 6.5 3.06631 305.61291 0 0 -23.45592 -120.04489 L -31.98615 -126.15484" />
    <path d="M -23.45592 -120.04489 A 6.5 3.06631 305.61291 0 0 -31.46514 -109.96934" />
    <path d="M -22.9495 -119.42361 A 150 70.76096 125.61291 0 1 3.99916 -144.43594" />
    <path d="M 13.0613 -151.29645 A 6.5 3.06631 305.61291 0 0 12.31522 -153.24578 L 3.78499 -159.35573" />
    <path d="M 12.31522 -153.24578 A 6.5 3.06631 305.61291 0 0 3.99916 -144.43594" />
    <path d="M 13.0613 -151.29645 A 150 70.76096 125.61291 0 1 40.00996 -167.08713" />
    <path d="M 48.5256 -170.5264 A 6.5 3.06631 305.61291 0 0 48.08636 -174.20603 L 39.55613 -180.31598" />
    <path d="M 48.08636 -174.20603 A 6.5 3.06631 305.61291 0 0 40.00996 -167.08713" />
    <path d="M 48.5256 -170.5264 A 150 70.76096 125.61291 0 1 72.22385 -175.19084" />
    <path d="M 79.16586 -174.79404 A 6.5 3.06631 305.61291 0 0 79.54297 -180.39752 L 71.01273 -186.50747" />
    <path d="M 79.54297 -180.39752 A 6.5 3.06631 305.61291 0 0 72.22385 -175.19084" />
    <path d="M 79.16586 -174.79404 A 150 70.76096 125.61291 0 1 95.87615 -168.42144 L 87.34592 -174.53139" />
    <path d="M 95.87615 -168.42144 A 150 70.76096 125.61291 0 1 96.75535 -167.76963" />
    <path d="M 101.28642 -163.58463 A 6.5 3.06631 305.61291 0 0 102.89092 -171.07345 L 94.36069 -177.18341" />
    <path d="M 102.89092 -171.07345 A 6.5 3.06631 305.61291 0 0 96.75535 -167.76963" />
    <path d="M 101.28642 -163.58463 A 150 70.76096 125.61291 0 1 110.64559 -145.71863" />
    <path d="M 112.21922 -138.25019 A 6.5 3.06631 305.61291 0 0 115.3141 -147.35847 L 108.34442 -152.35064" />
    <path d="M 115.3141 -147.35847 A 6.5 3.06631 305.61291 0 0 110.64559 -145.71863" />
    <path d="M 112.21922 -138.25019 A 150 70.76096 125.61291 0 1 112.21922 -111.6975" />
    <path d="M 110.64559 -101.84643 A 6.5 3.06631 305.61291 0 0 115.3141 -112.11293 L 112.496 -114.13145" />
    <path d="M 115.3141 -112.11293 A 6.5 3.06631 305.61291 0 0 112.21922 -111.6975" />
    <path d="M 110.64559 -101.84643 A 150 70.76096 125.61291 0 1 101.28642 -69.80969" />
    <path d="M 96.75535 -58.76418 A 6.5 3.06631 305.61291 0 0 102.89092 -69.58798 L 101.56337 -70.53886" />
    <path d="M 102.89092 -69.58798 A 6.5 3.06631 305.61291 0 0 101.28642 -69.80969" />
    <path d="M 96.75535 -58.76418 A 150 70.76096 125.61291 0 1 79.16586 -25.1075" />
    <path d="M 72.22385 -14.19979 A 6.5 3.06631 305.61291 0 0 79.54297 -24.91274 L 79.19776 -25.16" />
    <path d="M 79.54297 -24.91274 A 6.5 3.06631 305.61291 0 0 79.16586 -25.1075" />
    <path d="M -47.82201 71.44703 A 2.5 1.17935 125.61291 0 1 -47.39083 71.55866 A 2.5 1.17935 125.61291 1 1 -50.30236 75.62351 A 2.5 1.17935 125.61291 0 1 -47.82201 71.44703 Z" />
    <path d="M -82.64961 51.29912 A 2.5 1.17935 125.61291 0 1 -85.76319 55.10927 A 2.5 1.17935 125.61291 0 1 -82.85166 51.04442 A 2.5 1.17935 125.61291 0 1 -82.64961 51.29912 Z" />
    <path d="M -56.12456 22.85545 A 2.5 1.17935 125.61291 0 1 -59.23814 26.6656 A 2.5 1.17935 125.61291 0 1 -56.32661 22.60075 A 2.5 1.17935 125.61291 0 1 -56.12456 22.85545 Z" />
    <path d="M -31.42863 37.14215 A 2.5 1.17935 125.61291 0 1 -31.26769 37.1487" />
    <path d="M -32.47299 40.99249 A 2.5 1.17935 125.61291 0 1 -33.90898 41.31863 A 2.5 1.17935 125.61291 0 1 -31.42863 37.14215" />
    <path d="M -29.59952 -5.58822 A 2.5 1.17935 125.61291 0 1 -32.7131 -1.77807 A 2.5 1.17935 125.61291 0 1 -29.80157 -5.84292 A 2.5 1.17935 125.61291 0 1 -29.59952 -5.58822 Z" />
    <path d="M -82.64961 -6.19557 A 2.5 1.17935 125.61291 0 1 -85.76319 -3.43077 A 2.5 1.17935 125.61291 1 1 -82.85166 -7.49562 A 2.5 1.17935 125.61291 0 1 -82.64961 -6.19557 Z" />
    <path d="M -56.12456 -17.91351 A 2.5 1.17935 125.61291 0 1 -59.23814 -15.14872 A 2.5 1.17935 125.61291 1 1 -56.32661 -19.21356 A 2.5 1.17935 125.61291 0 1 -56.12456 -17.91351 Z" />
    <path d="M -47.82201 -79.07601 A 2.5 1.17935 125.61291 0 1 -50.30236 -77.63631 A 2.5 1.17935 125.61291 1 1 -47.39083 -81.70116 A 2.5 1.17935 125.61291 0 1 -47.82201 -79.07601 Z" />
    <path d="M -29.59952 -29.63146 A 2.5 1.17935 125.61291 0 1 -32.7131 -26.86666 A 2.5 1.17935 125.61291 1 1 -29.80157 -30.93151 A 2.5 1.17935 125.61291 0 1 -29.59952 -29.63146 Z" />
    <path d="M -15.03525 -60.10873 A 2.5 1.17935 125.61291 0 1 -17.5156 -58.66904 A 2.5 1.17935 125.61291 1 1 -14.60407 -62.73388 A 2.5 1.17935 125.61291 0 1 -15.03525 -60.10873 Z" />
    <path d="M -31.42863 -69.59237 A 2.5 1.17935 125.61291 0 1 -33.90898 -68.15267 A 2.5 1.17935 125.61291 1 1 -30.99745 -72.21752 A 2.5 1.17935 125.61291 0 1 -31.42863 -69.59237 Z" />
    <path d="M 46.65998 -63.32055 A 2.5 1.17935 125.61291 0 1 49.77356 -66.08534 A 2.5 1.17935 125.61291 1 1 46.86203 -62.02049 A 2.5 1.17935 125.61291 0 1 46.65998 -63.32055 Z" />
    <path d="M 65.84911 -14.92989 A 2.5 1.17935 125.61291 0 1 67.36282 -15.31569 A 2.5 1.17935 125.61291 0 1 67.0643 -12.89447" />
    <path d="M 73.18502 -75.03849 A 2.5 1.17935 125.61291 0 1 76.2986 -77.80329 A 2.5 1.17935 125.61291 1 1 73.38707 -73.73844 A 2.5 1.17935 125.61291 0 1 73.18502 -75.03849 Z" />
    <path d="M 99.71007 -86.75644 A 2.5 1.17935 125.61291 0 1 102.82365 -89.52123 A 2.5 1.17935 125.61291 1 1 99.91212 -85.45638 A 2.5 1.17935 125.61291 0 1 99.71007 -86.75644 Z" />
    <path d="M 8.53023 -85.37877 A 2.5 1.17935 125.61291 0 1 7.07446 -85.03777 A 2.5 1.17935 125.61291 0 1 9.986 -89.10262 A 2.5 1.17935 125.61291 0 1 8.53023 -85.37877 Z" />
    <path d="M 46.65998 -87.36378 A 2.5 1.17935 125.61291 0 1 49.77356 -91.17393 A 2.5 1.17935 125.61291 1 1 46.86203 -87.10908 A 2.5 1.17935 125.61291 0 1 46.65998 -87.36378 Z" />
    <path d="M 32.09571 -95.78927 A 2.5 1.17935 125.61291 0 1 31.66453 -95.9009 A 2.5 1.17935 125.61291 0 1 34.57606 -99.96575 A 2.5 1.17935 125.61291 0 1 32.09571 -95.78927 Z" />
    <path d="M 8.53023 -112.44156 A 2.5 1.17935 125.61291 0 1 7.07446 -112.10056 A 2.5 1.17935 125.61291 0 1 9.986 -116.16541 A 2.5 1.17935 125.61291 0 1 8.53023 -112.44156 Z" />
    <path d="M 8.53023 -139.50436 A 2.5 1.17935 125.61291 0 1 7.07446 -139.16336 A 2.5 1.17935 125.61291 0 1 9.986 -143.22821 A 2.5 1.17935 125.61291 0 1 8.53023 -139.50436 Z" />
    <path d="M 48.48909 -130.09415 A 2.5 1.17935 125.61291 0 1 48.05791 -130.20578 A 2.5 1.17935 125.61291 0 1 50.96944 -134.27063 A 2.5 1.17935 125.61291 0 1 48.48909 -130.09415 Z" />
    <path d="M 73.18502 -115.80745 A 2.5 1.17935 125.61291 0 1 76.2986 -119.6176 A 2.5 1.17935 125.61291 1 1 73.38707 -115.55276 A 2.5 1.17935 125.61291 0 1 73.18502 -115.80745 Z" />
    <path d="M 99.71007 -144.25112 A 2.5 1.17935 125.61291 0 1 102.82365 -148.06128 A 2.5 1.17935 125.61291 1 1 99.91212 -143.99643 A 2.5 1.17935 125.61291 0 1 99.71007 -144.25112 Z" />
    <path d="M 64.88247 -164.39903 A 2.5 1.17935 125.61291 0 1 64.45129 -164.51067 A 2.5 1.17935 125.61291 0 1 67.36282 -168.57551 A 2.5 1.17935 125.61291 0 1 64.88247 -164.39903 Z" />
    <path d="M -92.75619 64.52267 L -84.22596 70.63262" />
    <path d="M -103.68899 39.18823 L -95.15876 45.29819" />
    <path d="M -102.11536 2.78447 L -93.58513 8.89443" />
    <path d="M -88.22512 -40.29778 L -79.69489 -34.18782" />
    <path d="M -63.69362 -84.86216 L -55.16339 -78.75221" />
    <path d="M -203.83015 160.30999 L -203.83015 152.25881" />
    <path d="M 28.9384 -68.75998 L 36.10666 -63.62557" />
</svg>