<svg version="1.1" xmlns="http://www.w3.org/2000/svg" viewBox="-204.8300800092204 -187.78206178581513 409.6601600184408 497.32940338261733" fill="none" stroke="black" stroke-width="0.6%" vector-effect="non-scaling-stroke">
    <path d="M -197.77471 162.83042 L -197.77471 170.88125 L -11.39472 304.37702 A 20 14.72812 180 0 0 15.98295 304.7308 L 16.88683 304.08813 L 198.167 166.83682 L 199.80168 165.4326 A 20 14.72812 180 0 0 203.83008 156.56791 L 203.83008 148.51708 A 20 14.72812 180 0 0 197.77471 137.95929 L 123.22271 84.56098" />
    <path d="M -11.39472 296.32619 L -11.39472 304.37702" />
    <path d="M -85.94671 242.92788 L -11.39472 296.32619 A 20 14.72812 180 0 0 15.98295 296.67997 L 16.88683 296.0373 L 16.88683 304.08813" />
    <path d="M -85.94671 242.92788 L -85.94671 239.54518 L -93.11517 234.41073 L -7.97854 -37.09899" />
    <path d="M -93.11517 237.79343 L -93.11517 234.41073" />
    <path d="M -106.73525 228.03797 L -93.11517 237.79343" />
    <path d="M -106.73525 224.65527 L -106.73525 228.03797" />
    <path d="M -113.90371 219.52082 L -106.73525 224.65527" />
    <path d="M -113.90371 219.52082 L -113.90371 222.90352" />
    <path d="M -197.77471 162.83042 L -113.90371 222.90352" />
    <path d="M -199.80168 143.40794 A 20 14.72812 180 0 0 -203.83008 152.27263 A 20 14.72812 180 0 0 -197.77471 162.83042" />
    <path d="M -203.83008 160.32345 A 20 14.72812 180 0 0 -197.77471 170.88125" />
    <path d="M 15.98295 296.67997 L 15.98295 304.7308" />
    <path d="M -198.167 142.00372 L -199.80168 143.40794" />
    <path d="M -93.97606 63.11841 L -198.167 142.00372" />
    <path d="M -86.25459 212.5316 L -106.73525 228.03797" />
    <path d="M -85.94671 242.92788 L 15.84907 165.85599 L 69.61253 204.36439 L 69.61253 197.59899 L 36.67883 40.41995 A 30 14.54925 52.86981 0 0 15.84907 10.25178 L 15.84907 165.85599" />
    <path d="M 76.58485 199.08549 L 69.61253 204.36439" />
    <path d="M 63.48316 129.79114 L 123.22271 84.56098" />
    <path d="M 199.80168 157.38177 A 20 14.72812 180 0 0 203.83008 148.51708" />
    <path d="M 198.167 158.78599 L 199.80168 157.38177 L 199.80168 165.4326" />
    <path d="M 16.88683 296.0373 L 198.167 158.78599 L 198.167 166.83682" />
    <path d="M 123.22271 81.17828 L 123.22271 84.56098" />
    <path d="M -70.65831 81.60667 L -113.90371 219.52082" />
    <path d="M -63.48985 86.74113 L -106.73525 224.65527" />
    <path d="M 28.93849 -68.74129 A 30 14.15115 305.61236 0 0 -7.97854 -37.09899" />
    <path d="M 22.82139 4.97288 L 15.84907 10.25178" />
    <path d="M 38.08608 -61.4137 L 123.22271 81.17828" />
    <path d="M -0.81008 -31.96453 A 30 14.15115 125.61236 0 1 36.10695 -63.60684 A 30 14.15115 125.61236 0 1 38.08608 -61.4137" />
    <path d="M -85.94671 239.54518 L -0.81008 -31.96453 L -7.97854 -37.09899" />
    <path d="M 76.58485 192.32009 L 69.61253 197.59899" />
    <path d="M 76.58485 199.08549 L 76.58485 192.32009 L 43.65114 35.14106 L 36.67883 40.41995" />
    <path d="M 43.65114 35.14106 A 30 14.54925 52.86981 0 0 22.82139 4.97288" />
    <path d="M -45.09502 81.26939 A 150 70.75575 125.61236 0 1 -55.16127 82.25727 A 6.5 3.06608 125.61236 0 1 -62.48023 87.46428 L -71.0107 81.35428" />
    <path d="M -62.48023 87.46428 A 6.5 3.06608 125.61236 0 1 -62.10307 81.86106 A 150 70.75575 125.61236 0 1 -78.81428 75.48912 L -79.70272 74.85277" />
    <path d="M -71.75559 79.36343 A 6.5 3.06608 305.61236 0 0 -71.0107 81.35428" />
    <path d="M -78.81428 75.48912 A 150 70.75575 125.61236 0 1 -79.69204 74.83842 A 6.5 3.06608 125.61236 0 1 -85.82749 78.14256 L -94.35796 72.03256" />
    <path d="M -85.82749 78.14256 A 6.5 3.06608 125.61236 0 1 -84.22298 70.65397 A 150 70.75575 125.61236 0 1 -93.58187 52.78953 A 6.5 3.06608 125.61236 0 1 -98.25031 54.42964 L -106.78077 48.31964" />
    <path d="M -92.75345 64.54397 L -84.22298 70.65397" />
    <path d="M -92.75345 64.54397 A 6.5 3.06608 305.61236 0 0 -94.35796 72.03256" />
    <path d="M -92.75345 64.54397 A 150 70.75575 125.61236 0 1 -99.8109 53.31186" />
    <path d="M -98.25031 54.42964 A 6.5 3.06608 125.61236 0 1 -95.15545 45.32155 A 150 70.75575 125.61236 0 1 -95.15545 18.77003 A 6.5 3.06608 125.61236 0 1 -98.25031 19.18566 L -106.78077 13.07566" />
    <path d="M -103.68592 39.21155 L -95.15545 45.32155" />
    <path d="M -103.68592 39.21155 A 6.5 3.06608 305.61236 0 0 -106.78077 48.31964" />
    <path d="M -103.68592 39.21155 A 150 70.75575 125.61236 0 1 -103.96272 15.09411" />
    <path d="M -98.25031 19.18566 A 6.5 3.06608 125.61236 0 1 -93.58187 8.91927 A 150 70.75575 125.61236 0 1 -84.22298 -23.11683 A 6.5 3.06608 125.61236 0 1 -85.82749 -23.33845 L -94.35796 -29.44845" />
    <path d="M -102.11234 2.80927 L -93.58187 8.91927" />
    <path d="M -102.11234 2.80927 A 6.5 3.06608 305.61236 0 0 -106.78077 13.07566" />
    <path d="M -102.11234 2.80927 A 150 70.75575 125.61236 0 1 -93.03042 -28.49759" />
    <path d="M -85.82749 -23.33845 A 6.5 3.06608 125.61236 0 1 -79.69204 -34.16223 A 150 70.75575 125.61236 0 1 -62.10307 -67.81889 A 6.5 3.06608 125.61236 0 1 -62.48023 -68.01365 L -71.0107 -74.12365" />
    <path d="M -88.22251 -40.27223 L -79.69204 -34.16223" />
    <path d="M -88.22251 -40.27223 A 6.5 3.06608 305.61236 0 0 -94.35796 -29.44845" />
    <path d="M -88.22251 -40.27223 A 150 70.75575 125.61236 0 1 -70.66545 -73.87636" />
    <path d="M -62.48023 -68.01365 A 6.5 3.06608 125.61236 0 1 -55.16127 -78.72669 A 150 70.75575 125.61236 0 1 -31.46372 -109.9444 A 6.5 3.06608 125.61236 0 1 -23.45467 -120.02012 L -31.98514 -126.13012 A 6.5 3.06608 305.61236 0 0 -39.99419 -116.0544 L -31.46372 -109.9444" />
    <path d="M -63.69174 -84.83668 L -55.16127 -78.72669" />
    <path d="M -63.69174 -84.83668 A 6.5 3.06608 305.61236 0 0 -71.0107 -74.12365" />
    <path d="M -63.69174 -84.83668 A 150 70.75575 125.61236 0 1 -39.99419 -116.0544" />
    <path d="M -23.45467 -120.02012 A 6.5 3.06608 125.61236 0 1 -22.94833 -119.39896 A 150 70.75575 125.61236 0 1 3.99953 -144.41242 A 6.5 3.06608 125.61236 0 1 12.31541 -153.22251 L 3.78494 -159.33251 A 6.5 3.06608 305.61236 0 0 -4.53094 -150.52241 L 3.99953 -144.41242" />
    <path d="M -31.33348 -125.66337 A 150 70.75575 125.61236 0 1 -4.53094 -150.52241" />
    <path d="M 12.31541 -153.22251 A 6.5 3.06608 125.61236 0 1 13.06141 -151.27337 A 150 70.75575 125.61236 0 1 40.00927 -167.06558 A 6.5 3.06608 125.61236 0 1 48.08549 -174.18479 L 39.55502 -180.29479 A 6.5 3.06608 305.61236 0 0 31.4788 -173.17558 L 40.00927 -167.06558" />
    <path d="M 5.52262 -158.08789 A 150 70.75575 125.61236 0 1 31.4788 -173.17558" />
    <path d="M 48.08549 -174.18479 A 6.5 3.06608 125.61236 0 1 48.52465 -170.5054 A 150 70.75575 125.61236 0 1 72.22221 -175.17159 A 6.5 3.06608 125.61236 0 1 79.54116 -180.37861 L 71.0107 -186.4886 A 6.5 3.06608 305.61236 0 0 63.69174 -181.28159 L 72.22221 -175.17159" />
    <path d="M 43.19047 -177.69087 A 150 70.75575 125.61236 0 1 63.69174 -181.28159" />
    <path d="M 79.54116 -180.37861 A 6.5 3.06608 125.61236 0 1 79.16401 -174.77539 A 150 70.75575 125.61236 0 1 95.87521 -168.40344 L 87.34475 -174.51344" />
    <path d="M 80.28606 -178.38775 A 150 70.75575 125.61236 0 1 87.34475 -174.51344" />
    <path d="M 95.87521 -168.40344 A 150 70.75575 125.61236 0 1 96.75298 -167.75275 A 6.5 3.06608 125.61236 0 1 102.88842 -171.05689 L 94.35796 -177.16688 A 6.5 3.06608 305.61236 0 0 88.23319 -173.87709" />
    <path d="M 102.88842 -171.05689 A 6.5 3.06608 125.61236 0 1 101.28392 -163.5683 A 150 70.75575 125.61236 0 1 110.64281 -145.70386 A 6.5 3.06608 125.61236 0 1 115.31124 -147.34397 L 108.34137 -152.33618" />
    <path d="M 115.31124 -147.34397 A 6.5 3.06608 125.61236 0 1 112.21639 -138.23588 A 150 70.75575 125.61236 0 1 112.21639 -111.68436 A 6.5 3.06608 125.61236 0 1 115.31124 -112.09999 L 112.49319 -114.11843" />
    <path d="M 115.31124 -112.09999 A 6.5 3.06608 125.61236 0 1 110.64281 -101.83359 A 150 70.75575 125.61236 0 1 101.28392 -69.79749 A 6.5 3.06608 125.61236 0 1 102.88842 -69.57588 L 101.56089 -70.52673" />
    <path d="M 102.88842 -69.57588 A 6.5 3.06608 125.61236 0 1 96.75298 -58.75209 A 150 70.75575 125.61236 0 1 79.16401 -25.09544 A 6.5 3.06608 125.61236 0 1 79.54116 -24.90068 L 79.19592 -25.14797" />
    <path d="M 79.54116 -24.90068 A 6.5 3.06608 125.61236 0 1 72.22221 -14.18764 A 150 70.75575 125.61236 0 1 69.06281 -9.532" />
    <path d="M -203.83008 160.32345 L -203.83008 152.27263" />
    <path d="M 28.93849 -68.74129 L 36.10695 -63.60684" />
</svg>