<svg version="1.1" xmlns="http://www.w3.org/2000/svg" viewBox="-250.98361872907205 -153.26010181790338 398.62922072681033 346.11593415448215" fill="none" stroke="black" stroke-width="0.6%" vector-effect="non-scaling-stroke">
    <path d="M -94.56892 -113.60995 A 3.175 1.32277 289.29871 0 0 -95.61824 -108.03814" />
    <path d="M -93.51961 -114.03133 A 3.175 1.32277 289.29871 0 0 -94.56892 -113.60995" />
    <path d="M -86.69104 -91.03536 A 30 12.49858 109.29871 0 1 -61.48817 -131.23697" />
    <path d="M -86.69104 -91.03536 L -97.0856 80.33315 L -97.0856 84.38861 L -90.38249 86.73584" />
    <path d="M -247.14358 86.38084 L -248.29583 87.68621 A 20 11.69838 180 0 0 -249.98362 92.38974 A 20 11.69838 180 0 0 -240.25667 102.42693 L -106.40894 149.29636 L -106.40894 145.2409 L -42.86457 -86.72982 A 30 12.49858 109.29871 0 1 -19.44626 -116.51516 L -10.86627 -113.51071 A 30 12.49858 289.29871 0 0 -34.28459 -83.72537 L -42.86457 -86.72982" />
    <path d="M -113.59392 -44.1026 L -247.14358 86.38084" />
    <path d="M -112.91501 -44.72099 L -113.59392 -44.1026" />
    <path d="M -109.58972 -46.90495 A 20 11.69838 180 0 0 -112.91501 -44.72099" />
    <path d="M -95.54487 54.93223 L -138.83475 39.77342 L -138.83475 31.6625 L -98.96503 -75.44841 A 30 20.87746 225.66535 0 1 -95.45032 -80.81508 A 30 20.87746 225.66535 0 1 -87.0576 -84.9921" />
    <path d="M -44.88272 -79.3625 L -45.65197 -90.54146" />
    <path d="M -46.12637 -97.43565 L -47.53492 -117.90503 A 30 12.49858 289.29871 0 0 -52.90819 -128.23252 A 30 12.49858 289.29871 0 0 -78.11105 -88.03091 L -88.23657 78.90212" />
    <path d="M -86.69104 -91.03536 L -78.11105 -88.03091" />
    <path d="M -97.0856 80.33315 L -89.3688 83.03534" />
    <path d="M -90.3138 -85.83367 A 30 20.87746 225.66535 0 1 -86.85427 -88.34427" />
    <path d="M 96.4227 -146.8172 A 6.5 2.70803 109.29871 0 1 101.17443 -152.19516" />
    <path d="M 87.30957 -147.4208 A 150 62.49291 109.29871 0 1 96.4227 -146.8172 L 106.63288 -143.2419" />
    <path d="M 72.69133 -143.15224 A 6.5 2.70803 109.29871 0 1 78.00093 -150.68041" />
    <path d="M 54.91661 -131.12651 A 150 62.49291 109.29871 0 1 72.69133 -143.15224 L 82.90151 -139.57694" />
    <path d="M 46.16284 -122.76042 A 6.5 2.70803 109.29871 0 1 51.649 -132.27073" />
    <path d="M 26.85764 -98.64014 A 150 62.49291 109.29871 0 1 46.16284 -122.76042 L 56.37302 -119.18513" />
    <path d="M 20.03696 -88.1013 A 6.5 2.70803 109.29871 0 1 25.29707 -99.1866" />
    <path d="M 12.93137 -75.8289 A 150 62.49291 109.29871 0 1 20.03696 -88.1013 L 30.24714 -84.526" />
    <path d="M 124.70478 0.94098 A 150 62.49291 109.29871 0 1 117.4754 23.17639" />
    <path d="M 124.70478 0.94098 A 6.5 2.70803 289.29871 0 0 128.58461 -11.39322 A 6.5 2.70803 289.29871 0 0 128.04273 -11.44973" />
    <path d="M 134.93746 -48.09859 A 150 62.49291 109.29871 0 1 128.04273 -11.44973" />
    <path d="M 134.93746 -48.09859 A 6.5 2.70803 289.29871 0 0 137.73654 -60.04022 A 6.5 2.70803 289.29871 0 0 136.09672 -59.6128" />
    <path d="M 136.09672 -91.44495 A 150 62.49291 109.29871 0 1 136.09672 -59.6128" />
    <path d="M 136.09672 -91.44495 A 6.5 2.70803 289.29871 0 0 137.73654 -102.29361 A 6.5 2.70803 289.29871 0 0 134.93746 -100.69387" />
    <path d="M 128.04273 -123.86988 A 150 62.49291 109.29871 0 1 134.93746 -100.69387" />
    <path d="M 128.04273 -123.86988 A 6.5 2.70803 289.29871 0 0 128.58461 -133.05699 A 6.5 2.70803 289.29871 0 0 124.70478 -129.73795" />
    <path d="M 111.74693 -141.46245 A 150 62.49291 109.29871 0 1 124.70478 -129.73795" />
    <path d="M 111.74693 -141.46245 A 6.5 2.70803 289.29871 0 0 111.38461 -148.61986 A 6.5 2.70803 289.29871 0 0 106.63288 -143.2419" />
    <path d="M 89.17482 -142.10074 A 150 62.49291 109.29871 0 1 106.63288 -143.2419" />
    <path d="M 89.17482 -142.10074 A 6.5 2.70803 289.29871 0 0 88.21111 -147.10511 A 6.5 2.70803 289.29871 0 0 82.90151 -139.57694" />
    <path d="M 63.04893 -125.70777 A 150 62.49291 109.29871 0 1 82.90151 -139.57694" />
    <path d="M 63.04893 -125.70777 A 6.5 2.70803 289.29871 0 0 61.85918 -128.69543 A 6.5 2.70803 289.29871 0 0 56.37302 -119.18513" />
    <path d="M 36.52044 -94.26076 A 150 62.49291 109.29871 0 1 56.37302 -119.18513" />
    <path d="M 36.52044 -94.26076 A 6.5 2.70803 289.29871 0 0 35.50725 -95.6113 A 6.5 2.70803 289.29871 0 0 30.24714 -84.526" />
    <path d="M 19.30676 -65.01336 A 150 62.49291 109.29871 0 1 30.24714 -84.526" />
    <path d="M 35.55504 -82.09491 A 2.5 1.04155 109.29871 0 1 34.28961 -81.21172 A 2.5 1.04155 109.29871 0 1 35.94208 -85.93076 A 2.5 1.04155 109.29871 0 1 35.55504 -82.09491 Z" />
    <path d="M 71.97527 -122.71042 A 2.5 1.04155 109.29871 0 1 71.37202 -122.56569 A 2.5 1.04155 109.29871 0 1 73.02449 -127.28473 A 2.5 1.04155 109.29871 0 1 71.97527 -122.71042 Z" />
    <path d="M 42.58222 -58.47367 A 2.5 1.04155 109.29871 0 1 41.31679 -57.59048 A 2.5 1.04155 109.29871 0 1 42.96926 -62.30952 A 2.5 1.04155 109.29871 0 1 42.58222 -58.47367 Z" />
    <path d="M 68.40747 -87.27376 A 2.5 1.04155 109.29871 0 1 67.80423 -87.12903 A 2.5 1.04155 109.29871 0 1 69.45669 -91.84807 A 2.5 1.04155 109.29871 0 1 68.40747 -87.27376 Z" />
    <path d="M 49.6094 -34.85244 A 2.5 1.04155 109.29871 0 1 48.34397 -33.96924 A 2.5 1.04155 109.29871 0 1 49.99644 -38.68828 A 2.5 1.04155 109.29871 0 1 49.6094 -34.85244 Z" />
    <path d="M 64.83968 -51.8371 A 2.5 1.04155 109.29871 0 1 64.23643 -51.69237 A 2.5 1.04155 109.29871 0 1 65.8889 -56.41141 A 2.5 1.04155 109.29871 0 1 64.83968 -51.8371 Z" />
    <path d="M 65.27532 -4.7842 A 11 4.58281 109.29871 0 1 62.59436 3.95871" />
    <path d="M 55.70284 -3.26923 A 11 4.58281 109.29871 0 1 63.3464 -11.2788 A 11 4.58281 109.29871 0 1 65.27532 -4.7842" />
    <path d="M 105.10928 -130.68609 A 2.5 1.04155 109.29871 0 1 105.10847 -130.68638 A 2.5 1.04155 109.29871 0 1 106.76094 -135.40542 A 2.5 1.04155 109.29871 0 1 105.10928 -130.68609 Z" />
    <path d="M 91.9025 -92.92924 A 2.5 1.04155 109.29871 0 1 91.90169 -92.92952 A 2.5 1.04155 109.29871 0 1 93.55416 -97.64856 A 2.5 1.04155 109.29871 0 1 91.9025 -92.92924 Z" />
    <path d="M 78.69572 -55.17238 A 2.5 1.04155 109.29871 0 1 78.69491 -55.17267 A 2.5 1.04155 109.29871 0 1 80.34738 -59.89171 A 2.5 1.04155 109.29871 0 1 78.69572 -55.17238 Z" />
    <path d="M 87.46482 -43.9646 A 2.5 1.04155 109.29871 0 1 89.49774 -48.19662 A 2.5 1.04155 109.29871 0 1 87.84528 -43.47758 A 2.5 1.04155 109.29871 0 1 87.46482 -43.9646 Z" />
    <path d="M 88.7973 -21.21685 A 2.5 1.04155 109.29871 0 1 90.88815 -24.45985 A 2.5 1.04155 109.29871 0 1 89.23569 -19.74081 A 2.5 1.04155 109.29871 0 1 88.7973 -21.21685 Z" />
    <path d="M 106.77184 -73.92473 A 2.5 1.04155 109.29871 0 1 108.80476 -78.15676 A 2.5 1.04155 109.29871 0 1 107.1523 -73.43771 A 2.5 1.04155 109.29871 0 1 106.77184 -73.92473 Z" />
    <path d="M 126.07886 -103.88486 A 2.5 1.04155 109.29871 0 1 128.11178 -108.11689 A 2.5 1.04155 109.29871 0 1 126.45932 -103.39785 A 2.5 1.04155 109.29871 0 1 126.07886 -103.88486 Z" />
    <path d="M 82.33612 6.9756 A 2.5 1.04155 109.29871 0 1 84.14605 4.95836 A 2.5 1.04155 109.29871 0 1 82.49359 9.6774 A 2.5 1.04155 109.29871 0 1 82.33612 6.9756 Z" />
    <path d="M 109.03126 -35.35247 A 2.5 1.04155 109.29871 0 1 111.12211 -38.59547 A 2.5 1.04155 109.29871 0 1 109.46965 -33.87643 A 2.5 1.04155 109.29871 0 1 109.03126 -35.35247 Z" />
    <path d="M 129.26522 -49.48809 A 2.5 1.04155 109.29871 0 1 131.35607 -52.73108 A 2.5 1.04155 109.29871 0 1 129.70361 -48.01204 A 2.5 1.04155 109.29871 0 1 129.26522 -49.48809 Z" />
    <path d="M 98.07534 12.45213 A 2.5 1.04155 109.29871 0 1 99.88528 10.43489 A 2.5 1.04155 109.29871 0 1 98.23281 15.15393 A 2.5 1.04155 109.29871 0 1 98.07534 12.45213 Z" />
    <path d="M 113.81457 17.92865 A 2.5 1.04155 109.29871 0 1 115.62451 15.91142 A 2.5 1.04155 109.29871 0 1 113.97204 20.63046 A 2.5 1.04155 109.29871 0 1 113.81457 17.92865 Z" />
    <path d="M 136.91865 29.98483 L 56.26681 1.74299" />
    <path d="M 56.26681 -2.31247 L 56.26681 1.74299" />
    <path d="M -240.25667 102.42693 L -240.25667 112.07892 L -17.17712 190.19464 A 20 11.69838 180 0 0 9.57699 186.78474 L 10.2559 186.16636 L 143.80557 55.68291 L 144.95781 54.37754 A 20 11.69838 180 0 0 146.6456 49.67401 L 146.6456 40.02202 A 20 11.69838 180 0 0 136.91865 29.98483" />
    <path d="M -17.17712 180.54265 L -17.17712 190.19464" />
    <path d="M -97.82896 152.30081 L -17.17712 180.54265 A 20 11.69838 180 0 0 9.57699 177.13275 L 9.57699 186.78474" />
    <path d="M -97.82896 152.30081 L -97.82896 148.24535 L -34.28459 -83.72537" />
    <path d="M -97.82896 148.24535 L -106.40894 145.2409" />
    <path d="M -249.98362 102.04173 A 20 11.69838 180 0 0 -240.25667 112.07892" />
    <path d="M -63.8723 -96.92167 A 3.175 1.32277 109.29871 0 1 -61.77367 -102.91486" />
    <path d="M -97.82896 152.30081 L -22.83568 79.02934 L 41.51419 101.56272 L 41.51419 93.4518 L 1.64446 -41.58146 A 30 20.87746 45.66535 0 0 -22.83568 -66.96718 L -22.83568 79.02934" />
    <path d="M 46.65072 96.54413 L 41.51419 101.56272" />
    <path d="M 28.93838 28.44398 L 56.26681 1.74299" />
    <path d="M 144.95781 44.72555 A 20 11.69838 180 0 0 146.6456 40.02202" />
    <path d="M 143.80557 46.03092 L 144.95781 44.72555 L 144.95781 54.37754" />
    <path d="M 10.2559 176.51436 L 143.80557 46.03092 L 143.80557 55.68291" />
    <path d="M 9.57699 177.13275 L 10.2559 176.51436 L 10.2559 186.16636" />
    <path d="M -7.27756 -110.11233 L 56.26681 -2.31247" />
    <path d="M -7.27756 -110.11233 A 30 12.49858 289.29871 0 0 -10.86627 -113.51071" />
    <path d="M -17.69916 -71.98578 L -22.83568 -66.96718" />
    <path d="M -20.78107 -87.77167 A 3.175 1.32277 109.29871 0 1 -19.73175 -88.19305" />
    <path d="M -21.83039 -82.19987 A 3.175 1.32277 109.29871 0 1 -20.78107 -87.77167" />
    <path d="M 24.2012 12.3998 A 6 2.49972 109.29871 0 1 27.43062 9.96987 A 6 2.49972 109.29871 0 1 26.29347 19.48602" />
    <path d="M 46.65072 88.43321 L 41.51419 93.4518" />
    <path d="M 46.65072 96.54413 L 46.65072 88.43321 L 6.78099 -46.60005 A 30 20.87746 45.66535 0 0 -17.69916 -71.98578" />
    <path d="M 6.78099 -46.60005 L 1.64446 -41.58146" />
    <path d="M -8.76909 -83.56544 A 3.175 1.32277 109.29871 0 1 -7.71978 -83.98682 L -19.73175 -88.19305" />
    <path d="M -7.71978 -83.98682 A 3.175 1.32277 109.29871 0 1 -9.81841 -77.99363 L -21.83039 -82.19987" />
    <path d="M -9.81841 -77.99363 A 3.175 1.32277 109.29871 0 1 -8.76909 -83.56544" />
    <path d="M -82.08367 -110.02681 L -93.51961 -114.03133" />
    <path d="M -84.1823 -104.03362 L -95.61824 -108.03814" />
    <path d="M -52.90819 -128.23252 L -61.48817 -131.23697" />
    <path d="M -90.3138 -85.83367 L -95.45032 -80.81508" />
    <path d="M -249.98362 102.04173 L -249.98362 92.38974" />
    <path d="M 128.58461 -11.39322 L 128.07328 -11.57227" />
    <path d="M 137.73654 -60.04022 L 136.1701 -60.58874" />
    <path d="M 137.73654 -102.29361 L 134.45729 -103.4419" />
    <path d="M 128.58461 -133.05699 L 119.1893 -136.34695" />
    <path d="M 111.38461 -148.61986 L 101.17443 -152.19516" />
    <path d="M 88.21111 -147.10511 L 78.00093 -150.68041" />
    <path d="M 61.85918 -128.69543 L 51.649 -132.27073" />
    <path d="M 35.50725 -95.6113 L 25.29707 -99.1866" />
    <path d="M -40.04175 -95.305 L -61.77367 -102.91486" />
    <path d="M -42.14039 -89.31181 L -63.8723 -96.92167" />
</svg>