<svg version="1.1" xmlns="http://www.w3.org/2000/svg" viewBox="-204.8301530241419 -187.80085933621538 409.6603060482837 497.3331325062926" fill="none" stroke="black" stroke-width="0.6%" vector-effect="non-scaling-stroke">
    <path d="M -197.77519 162.81574 L -197.77519 170.86691 L -11.4004 304.3618 A 20 14.72759 180 0 0 15.97726 304.71615 L 16.88117 304.07352 L 198.16667 166.83098 L 199.8014 165.42685 A 20 14.72759 180 0 0 203.83015 156.56214 L 203.83015 148.51097 A 20 14.72759 180 0 0 197.77519 137.95385 L 123.22527 84.55589" />
    <path d="M -11.4004 296.31063 L -11.4004 304.3618" />
    <path d="M -85.95031 242.91267 L -11.4004 296.31063 A 20 14.72759 180 0 0 15.97726 296.66498 L 16.88117 296.02235 L 16.88117 304.07352" />
    <path d="M -85.95031 242.91267 L -85.95031 239.52983 L -93.11858 234.39541 L -7.97944 -37.11902" />
    <path d="M -93.11858 237.77826 L -93.11858 234.39541" />
    <path d="M -106.73827 228.02286 L -93.11858 237.77826" />
    <path d="M -106.73827 224.64001 L -106.73827 228.02286" />
    <path d="M -113.90653 219.5056 L -106.73827 224.64001" />
    <path d="M -113.90653 219.5056 L -113.90653 222.88844" />
    <path d="M -197.77519 162.81574 L -113.90653 222.88844" />
    <path d="M -199.8014 143.39391 A 20 14.72759 180 0 0 -203.83015 152.25862 A 20 14.72759 180 0 0 -197.77519 162.81574" />
    <path d="M -203.83015 160.30979 A 20 14.72759 180 0 0 -197.77519 170.86691" />
    <path d="M 15.97726 296.66498 L 15.97726 304.71615" />
    <path d="M -198.16667 141.98978 L -199.8014 143.39391" />
    <path d="M -93.97021 63.10764 L -198.16667 141.98978" />
    <path d="M -86.25868 212.51875 L -106.73827 228.02286" />
    <path d="M -85.95031 242.91267 L 15.84847 165.84571 L 69.61043 204.35385 L 69.61043 197.58816 L 36.67764 40.40358 A 30 14.54947 52.87239 0 0 15.84847 10.23486 L 15.84847 165.84571" />
    <path d="M 76.58295 199.07529 L 69.61043 204.35385" />
    <path d="M 63.4828 129.78404 L 123.22527 84.55589" />
    <path d="M 199.8014 157.37568 A 20 14.72759 180 0 0 203.83015 148.51097" />
    <path d="M 198.16667 158.77981 L 199.8014 157.37568 L 199.8014 165.42685" />
    <path d="M 16.88117 296.02235 L 198.16667 158.77981 L 198.16667 166.83098" />
    <path d="M 123.22527 81.17305 L 123.22527 84.55589" />
    <path d="M -70.65968 81.58847 L -113.90653 219.5056" />
    <path d="M -63.49142 86.72289 L -106.73827 224.64001" />
    <path d="M 28.93841 -68.75989 A 30 14.15217 305.61293 0 0 -7.97944 -37.11902" />
    <path d="M 22.82099 4.9563 L 15.84847 10.23486" />
    <path d="M 38.08613 -61.43188 L 123.22527 81.17305" />
    <path d="M -0.81117 -31.9846 A 30 14.15217 125.61293 0 1 36.10667 -63.62547 A 30 14.15217 125.61293 0 1 38.08613 -61.43188" />
    <path d="M -85.95031 239.52983 L -0.81117 -31.9846 L -7.97944 -37.11902" />
    <path d="M 76.58295 192.3096 L 69.61043 197.58816" />
    <path d="M 76.58295 199.07529 L 76.58295 192.3096 L 43.65016 35.12502 L 36.67764 40.40358" />
    <path d="M 43.65016 35.12502 A 30 14.54947 52.87239 0 0 22.82099 4.9563" />
    <path d="M -45.09713 81.25181 A 150 70.76085 125.61293 0 1 -55.16338 82.23886 A 6.5 3.0663 125.61293 0 1 -62.4825 87.44555 L -71.01273 81.33559" />
    <path d="M -62.4825 87.44555 A 6.5 3.0663 125.61293 0 1 -62.10539 81.84208 A 150 70.76085 125.61293 0 1 -78.81575 75.46948 L -79.70559 74.83211" />
    <path d="M -71.75768 79.34377 A 6.5 3.0663 305.61293 0 0 -71.01273 81.33559" />
    <path d="M -78.81575 75.46948 A 150 70.76085 125.61293 0 1 -79.69488 74.81772 A 6.5 3.0663 125.61293 0 1 -85.83045 78.12154 L -94.36068 72.01159" />
    <path d="M -85.83045 78.12154 A 6.5 3.0663 125.61293 0 1 -84.22595 70.63273 A 150 70.76085 125.61293 0 1 -93.58512 52.76677 A 6.5 3.0663 125.61293 0 1 -98.25363 54.40661 L -106.78386 48.29666" />
    <path d="M -92.75618 64.52277 L -84.22595 70.63273" />
    <path d="M -92.75618 64.52277 A 6.5 3.0663 305.61293 0 0 -94.36068 72.01159" />
    <path d="M -92.75618 64.52277 A 150 70.76085 125.61293 0 1 -99.81416 53.28885" />
    <path d="M -98.25363 54.40661 A 6.5 3.0663 125.61293 0 1 -95.15875 45.29834 A 150 70.76085 125.61293 0 1 -95.15875 18.74569 A 6.5 3.0663 125.61293 0 1 -98.25363 19.16113 L -106.78386 13.05117" />
    <path d="M -103.68898 39.18839 L -95.15875 45.29834" />
    <path d="M -103.68898 39.18839 A 6.5 3.0663 305.61293 0 0 -106.78386 48.29666" />
    <path d="M -103.68898 39.18839 A 150 70.76085 125.61293 0 1 -103.96576 15.06969" />
    <path d="M -98.25363 19.16113 A 6.5 3.0663 125.61293 0 1 -93.58512 8.89463 A 150 70.76085 125.61293 0 1 -84.22595 -23.14208 A 6.5 3.0663 125.61293 0 1 -85.83045 -23.36379 L -94.36068 -29.47375" />
    <path d="M -102.11535 2.78467 L -93.58512 8.89463" />
    <path d="M -102.11535 2.78467 A 6.5 3.0663 305.61293 0 0 -106.78386 13.05117" />
    <path d="M -102.11535 2.78467 A 150 70.76085 125.61293 0 1 -93.03313 -28.52287" />
    <path d="M -85.83045 -23.36379 A 6.5 3.0663 125.61293 0 1 -79.69488 -34.18759 A 150 70.76085 125.61293 0 1 -62.10539 -67.84426 A 6.5 3.0663 125.61293 0 1 -62.4825 -68.03901 L -71.01273 -74.14897" />
    <path d="M -88.22511 -40.29755 L -79.69488 -34.18759" />
    <path d="M -88.22511 -40.29755 A 6.5 3.0663 305.61293 0 0 -94.36068 -29.47375" />
    <path d="M -88.22511 -40.29755 A 150 70.76085 125.61293 0 1 -70.66752 -73.90171" />
    <path d="M -62.4825 -68.03901 A 6.5 3.0663 125.61293 0 1 -55.16338 -78.75196 A 150 70.76085 125.61293 0 1 -31.46513 -109.96909 A 6.5 3.0663 125.61293 0 1 -23.45591 -120.04464 L -31.98614 -126.1546 A 6.5 3.0663 305.61293 0 0 -39.99536 -116.07905 L -31.46513 -109.96909" />
    <path d="M -63.69361 -84.86192 L -55.16338 -78.75196" />
    <path d="M -63.69361 -84.86192 A 6.5 3.0663 305.61293 0 0 -71.01273 -74.14897" />
    <path d="M -63.69361 -84.86192 A 150 70.76085 125.61293 0 1 -39.99536 -116.07905" />
    <path d="M -23.45591 -120.04464 A 6.5 3.0663 125.61293 0 1 -22.9495 -119.42337 A 150 70.76085 125.61293 0 1 3.99916 -144.43572 A 6.5 3.0663 125.61293 0 1 12.31522 -153.24556 L 3.78499 -159.35552 A 6.5 3.0663 305.61293 0 0 -4.53107 -150.54568 L 3.99916 -144.43572" />
    <path d="M -31.33438 -125.68777 A 150 70.76085 125.61293 0 1 -4.53107 -150.54568" />
    <path d="M 12.31522 -153.24556 A 6.5 3.0663 125.61293 0 1 13.0613 -151.29624 A 150 70.76085 125.61293 0 1 40.00996 -167.08695 A 6.5 3.0663 125.61293 0 1 48.08636 -174.20585 L 39.55612 -180.31581 A 6.5 3.0663 305.61293 0 0 31.47973 -173.19691 L 40.00996 -167.08695" />
    <path d="M 5.52287 -158.11073 A 150 70.76085 125.61293 0 1 31.47973 -173.19691" />
    <path d="M 48.08636 -174.20585 A 6.5 3.0663 125.61293 0 1 48.52559 -170.52623 A 150 70.76085 125.61293 0 1 72.22385 -175.19071 A 6.5 3.0663 125.61293 0 1 79.54296 -180.39739 L 71.01273 -186.50735 A 6.5 3.0663 305.61293 0 0 63.69361 -181.30067 L 72.22385 -175.19071" />
    <path d="M 43.19201 -177.71153 A 150 70.76085 125.61293 0 1 63.69361 -181.30067" />
    <path d="M 79.54296 -180.39739 A 6.5 3.0663 125.61293 0 1 79.16585 -174.79392 A 150 70.76085 125.61293 0 1 95.87621 -168.42132 L 87.34598 -174.53128" />
    <path d="M 80.28791 -178.40557 A 150 70.76085 125.61293 0 1 87.34598 -174.53128" />
    <path d="M 95.87621 -168.42132 A 150 70.76085 125.61293 0 1 96.75534 -167.76956 A 6.5 3.0663 125.61293 0 1 102.89091 -171.07339 L 94.36068 -177.18335 A 6.5 3.0663 305.61293 0 0 88.23582 -173.89391" />
    <path d="M 102.89091 -171.07339 A 6.5 3.0663 125.61293 0 1 101.28641 -163.58457 A 150 70.76085 125.61293 0 1 110.64558 -145.71862 A 6.5 3.0663 125.61293 0 1 115.31409 -147.35846 L 108.3444 -152.35065" />
    <path d="M 115.31409 -147.35846 A 6.5 3.0663 125.61293 0 1 112.21921 -138.25019 A 150 70.76085 125.61293 0 1 112.21921 -111.69754 A 6.5 3.0663 125.61293 0 1 115.31409 -112.11297 L 112.49599 -114.1315" />
    <path d="M 115.31409 -112.11297 A 6.5 3.0663 125.61293 0 1 110.64558 -101.84648 A 150 70.76085 125.61293 0 1 101.28641 -69.80977 A 6.5 3.0663 125.61293 0 1 102.89091 -69.58805 L 101.56336 -70.53894" />
    <path d="M 102.89091 -69.58805 A 6.5 3.0663 125.61293 0 1 96.75534 -58.76426 A 150 70.76085 125.61293 0 1 79.16585 -25.10759 A 6.5 3.0663 125.61293 0 1 79.54296 -24.91283 L 79.19775 -25.1601" />
    <path d="M 79.54296 -24.91283 A 6.5 3.0663 125.61293 0 1 72.22385 -14.19989 A 150 70.76085 125.61293 0 1 69.06442 -9.5444" />
    <path d="M -203.83015 160.30979 L -203.83015 152.25862" />
    <path d="M 28.93841 -68.75989 L 36.10667 -63.62547" />
</svg>