<svg version="1.1" xmlns="http://www.w3.org/2000/svg" viewBox="-36.308334111344735 -198.61160683646966 72.61666822268944 453.779909752632" fill="none" stroke="black" stroke-width="0.6%" vector-effect="non-scaling-stroke">
    <path d="M 0.44779 254.1683 L -9.48447 253.20426 L -9.48447 247.62107 L 4.70455 -23.86563" />
    <path d="M 0.44779 248.58511 L -9.48447 247.62107" />
    <path d="M 0.44779 254.1683 L 0.44779 248.58511 L 14.63681 -22.90159 A 30 1.94633 95.54386 0 1 20.77629 -69.57959 A 30 1.94633 95.54386 0 1 21.11931 -68.87008 L 35.30833 1.38326 L 35.30833 6.96645 L 0.44779 254.1683 Z" />
    <path d="M 14.63681 -22.90159 L 4.70455 -23.86563" />
    <path d="M 10.84403 -70.54363 A 30 1.94633 275.54386 0 0 4.70455 -23.86563" />
    <path d="M -25.37608 251.6618 L -35.30833 250.69775 L -35.30833 245.11457 L -21.11931 -26.37214" />
    <path d="M -25.37608 246.07861 L -35.30833 245.11457" />
    <path d="M -25.37608 251.6618 L -25.37608 246.07861 L -18.45557 113.66465" />
    <path d="M -0.46225 74.99372 L -25.37608 251.6618" />
    <path d="M -19.63892 -26.22845 L -21.11931 -26.37214" />
    <path d="M -14.97983 -73.05013 A 30 1.94633 275.54386 0 0 -21.11931 -26.37214" />
    <path d="M 7.7772 -197.61148 A 6.5 0.4217 275.54386 0 0 6.8139 -192.01555" />
    <path d="M 3.88611 -192.29973 A 6.5 0.4217 275.54386 0 0 2.66917 -183.92548 L 14.48856 -182.77827 A 6.5 0.4217 95.54386 0 1 15.70549 -191.15252 L 3.88611 -192.29973 Z" />
    <path d="M -0.73457 -169.6069 A 150 9.73165 95.54386 0 1 2.66917 -183.92548" />
    <path d="M -1.35635 -169.66725 A 6.5 0.4217 275.54386 0 0 -2.69949 -159.29315 L 9.11989 -158.14594 A 6.5 0.4217 95.54386 0 1 10.46303 -168.52004 L -1.35635 -169.66725 Z" />
    <path d="M -7.02088 -132.41503 A 150 9.73165 95.54386 0 1 -2.69949 -159.29315" />
    <path d="M -7.31786 -132.44386 A 6.5 0.4217 275.54386 0 0 -8.70094 -120.54085 L 3.11845 -119.39364 A 6.5 0.4217 95.54386 0 1 4.50153 -131.29665 L -7.31786 -132.44386 Z" />
    <path d="M -13.16654 -85.10829 A 150 9.73165 95.54386 0 1 -8.70094 -120.54085" />
    <path d="M -13.27936 -85.11924 A 6.5 0.4217 275.54386 0 0 -14.61131 -72.34267 L -2.79192 -71.19546 A 6.5 0.4217 95.54386 0 1 -1.45997 -83.97203 L -13.27936 -85.11924 Z" />
    <path d="M -18.56078 -33.38038 A 150 9.73165 95.54386 0 1 -14.61131 -72.34267" />
    <path d="M -18.56078 -33.38038 A 6.5 0.4217 275.54386 0 0 -19.77772 -20.46225" />
    <path d="M -22.64912 17.0605 A 150 9.73165 95.54386 0 1 -19.72251 -20.45689" />
    <path d="M -22.64912 17.0605 A 6.5 0.4217 275.54386 0 0 -23.66881 29.4108" />
    <path d="M -24.96403 60.3505 A 150 9.73165 95.54386 0 1 -23.44899 29.43214" />
    <path d="M -24.96403 60.3505 A 6.5 0.4217 275.54386 0 0 -25.73922 71.42367" />
    <path d="M -25.22628 91.26821 A 150 9.73165 95.54386 0 1 -25.27143 71.46908" />
    <path d="M -25.22628 91.26821 A 6.5 0.4217 275.54386 0 0 -25.73922 100.50899" />
    <path d="M -23.40426 106.08449 A 150 9.73165 95.54386 0 1 -24.59559 100.61999" />
    <path d="M -23.40426 106.08449 A 6.5 0.4217 275.54386 0 0 -23.66881 113.15865" />
    <path d="M -0.14388 68.90221 A 150 9.73165 95.54386 0 1 -1.37273 75.98753 A 6.5 0.4217 95.54386 0 1 -2.71587 86.36163 L -3.33766 86.30128" />
    <path d="M -2.71587 86.36163 A 6.5 0.4217 95.54386 0 1 -2.79192 83.56938 A 150 9.73165 95.54386 0 1 -6.7414 100.61985 A 6.5 0.4217 95.54386 0 1 -7.95833 108.9941 L -10.88612 108.70993" />
    <path d="M 18.5769 -100.36612 A 150 9.73165 95.54386 0 1 16.26224 -70.01773" />
    <path d="M 19.33203 -112.00517 A 6.5 0.4217 95.54386 0 1 19.59659 -112.71642 L 19.37676 -112.73776" />
    <path d="M 19.59659 -112.71642 A 6.5 0.4217 95.54386 0 1 18.5769 -100.36612" />
    <path d="M 20.8918 -143.65612 A 150 9.73165 95.54386 0 1 19.33203 -112.00517" />
    <path d="M 21.15406 -152.66202 A 6.5 0.4217 95.54386 0 1 21.667 -154.72929 L 21.1992 -154.7747" />
    <path d="M 21.667 -154.72929 A 6.5 0.4217 95.54386 0 1 20.8918 -143.65612" />
    <path d="M 21.15406 -174.57383 A 150 9.73165 95.54386 0 1 21.15406 -152.66202" />
    <path d="M 20.8918 -179.86033 A 6.5 0.4217 95.54386 0 1 21.667 -183.81462 L 20.52337 -183.92562" />
    <path d="M 21.667 -183.81462 A 6.5 0.4217 95.54386 0 1 21.15406 -174.57383" />
    <path d="M 19.33203 -189.39012 A 150 9.73165 95.54386 0 1 20.8918 -179.86033" />
    <path d="M 18.5769 -190.3196 A 6.5 0.4217 95.54386 0 1 19.59659 -196.46427 L 7.7772 -197.61148" />
    <path d="M 19.59659 -196.46427 A 6.5 0.4217 95.54386 0 1 19.33203 -189.39012" />
    <path d="M 15.64549 -186.31792 A 150 9.73165 95.54386 0 1 18.36472 -190.37759 L 15.81945 -190.62464" />
    <path d="M 18.36472 -190.37759 A 150 9.73165 95.54386 0 1 18.5769 -190.3196" />
    <path d="M 15.70549 -191.15252 A 6.5 0.4217 95.54386 0 1 15.64549 -186.31792" />
    <path d="M 10.53908 -165.72779 A 150 9.73165 95.54386 0 1 14.48856 -182.77827" />
    <path d="M 10.46303 -168.52004 A 6.5 0.4217 95.54386 0 1 10.53908 -165.72779" />
    <path d="M 4.62871 -130.10321 A 150 9.73165 95.54386 0 1 9.11989 -158.14594" />
    <path d="M 4.50153 -131.29665 A 6.5 0.4217 95.54386 0 1 4.62871 -130.10321" />
    <path d="M -1.37273 -83.74101 A 150 9.73165 95.54386 0 1 3.11845 -119.39364" />
    <path d="M -1.45997 -83.97203 A 6.5 0.4217 95.54386 0 1 -1.37273 -83.74101" />
    <path d="M -18.56078 -33.38038 L -6.7414 -32.23317 A 150 9.73165 95.54386 0 1 -2.79192 -71.19546" />
    <path d="M -7.89833 -19.36482 A 6.5 0.4217 95.54386 0 1 -7.95833 -19.31504 L -19.77772 -20.46225" />
    <path d="M -7.95833 -19.31504 A 6.5 0.4217 95.54386 0 1 -6.7414 -32.23317" />
    <path d="M -22.64912 17.0605 L -10.82974 18.2077 A 150 9.73165 95.54386 0 1 -7.89833 -19.36482" />
    <path d="M -11.58487 29.84675 A 6.5 0.4217 95.54386 0 1 -11.84943 30.55801 L -23.66881 29.4108" />
    <path d="M -11.84943 30.55801 A 6.5 0.4217 95.54386 0 1 -10.82974 18.2077" />
    <path d="M -24.96403 60.3505 L -13.14464 61.4977 A 150 9.73165 95.54386 0 1 -11.58487 29.84675" />
    <path d="M -13.4069 70.5036 A 6.5 0.4217 95.54386 0 1 -13.91984 72.57088 L -25.73922 71.42367" />
    <path d="M -13.91984 72.57088 A 6.5 0.4217 95.54386 0 1 -13.14464 61.4977" />
    <path d="M -25.22628 91.26821 L -13.4069 92.41541 A 150 9.73165 95.54386 0 1 -13.4069 70.5036" />
    <path d="M -13.14464 97.70192 A 6.5 0.4217 95.54386 0 1 -13.91984 101.6562 L -25.73922 100.50899" />
    <path d="M -13.91984 101.6562 A 6.5 0.4217 95.54386 0 1 -13.4069 92.41541" />
    <path d="M -23.40426 106.08449 L -11.58487 107.2317 A 150 9.73165 95.54386 0 1 -13.14464 97.70192" />
    <path d="M -10.82974 108.16118 A 6.5 0.4217 95.54386 0 1 -11.84943 114.30585 L -23.66881 113.15865" />
    <path d="M -11.84943 114.30585 A 6.5 0.4217 95.54386 0 1 -11.58487 107.2317" />
    <path d="M -7.89833 104.15951 A 150 9.73165 95.54386 0 1 -10.61756 108.21917 L -10.83345 108.19822" />
    <path d="M -10.61756 108.21917 A 150 9.73165 95.54386 0 1 -10.82974 108.16118" />
    <path d="M -7.95833 108.9941 A 6.5 0.4217 95.54386 0 1 -7.89833 104.15951" />
    <path d="M 10.84403 -70.54363 L 20.77629 -69.57959" />
    <path d="M -14.97983 -73.05013 L -14.66017 -73.01911" />
</svg>