<svg version="1.1" xmlns="http://www.w3.org/2000/svg" viewBox="-204.83015327912318 -165.69992839649666 409.66030655824636 433.2777708114871" fill="none" stroke="black" stroke-width="0.6%" vector-effect="non-scaling-stroke">
    <path d="M -85.95033 205.5044 L -85.95033 201.78328 L 0.30728 -13.32793 A 30 15.56737 123.0114 0 1 34.98165 -40.31578 L 42.14991 -35.65863 A 30 15.56737 303.0114 0 0 7.47554 -8.67078 L 0.30728 -13.32793" />
    <path d="M -199.8014 115.23638 A 20 13.35859 180 0 0 -203.83015 123.27707 A 20 13.35859 180 0 0 -197.77519 132.85285 L -197.77519 141.70913 L -11.40042 262.79504 A 20 13.35859 180 0 0 15.97724 263.11645 L 16.88115 262.53356 L 198.16667 138.04839 L 199.8014 136.77478 A 20 13.35859 180 0 0 203.83015 128.73409 L 203.83015 119.87781 A 20 13.35859 180 0 0 197.77519 110.30203 L 130.39354 66.52481" />
    <path d="M -198.16667 113.96277 L -199.8014 115.23638" />
    <path d="M -104.47631 49.62746 L -198.16667 113.96277" />
    <path d="M -197.77519 132.85285 L -85.95033 205.5044" />
    <path d="M -11.40042 253.93876 L -11.40042 262.79504" />
    <path d="M -78.78207 210.16155 L -11.40042 253.93876 A 20 13.35859 180 0 0 15.97724 254.26017 L 16.88115 253.67728 L 16.88115 262.53356" />
    <path d="M -78.78207 210.16155 L -78.78207 206.44043 L 7.47554 -8.67078" />
    <path d="M -78.78207 206.44043 L -85.95033 201.78328" />
    <path d="M 44.13594 -33.84474 A 30 15.56737 303.0114 0 0 42.14991 -35.65863" />
    <path d="M 44.13594 -33.84474 L 130.39354 62.80369 L 130.39354 66.52481" />
    <path d="M 84.37491 83.2404 A 6 3.11347 123.0114 0 1 91.82726 75.33629 A 6 3.11347 123.0114 1 1 85.28959 85.39904 A 6 3.11347 123.0114 0 1 84.37491 83.2404 Z" />
    <path d="M -203.83015 132.13334 A 20 13.35859 180 0 0 -197.77519 141.70913" />
    <path d="M 15.97724 254.26017 L 15.97724 263.11645" />
    <path d="M -78.78207 210.16155 L 12.70381 147.34001" />
    <path d="M 7.42546 166.73813 L 16.25055 170.36501 L 42.63196 73.41242 L 34.20075 68.33802 A 30 5.33727 121.04203 0 1 65.09408 22.72245 L 73.52528 27.79686 A 30 5.33727 301.04203 0 0 42.63196 73.41242" />
    <path d="M 16.25055 170.36501 L 34.95653 148.01551 L 76.77868 175.18697 L 76.77868 167.74472 L 65.56594 123.06438" />
    <path d="M 83.75121 170.39908 L 76.77868 175.18697" />
    <path d="M 98.27284 169.77013 L 83.75121 163.42927" />
    <path d="M 98.27284 169.77013 L 103.99158 164.02558 L 81.54591 82.43129 A 30 13.08487 36.06929 0 0 59.39572 58.37623 L 54.09762 65.64991 L 42.11508 125.87426 L 65.56594 123.06438" />
    <path d="M 85.6266 97.26538 L 130.39354 66.52481" />
    <path d="M 199.8014 127.9185 A 20 13.35859 180 0 0 203.83015 119.87781" />
    <path d="M 198.16667 129.19211 L 199.8014 127.9185 L 199.8014 136.77478" />
    <path d="M 16.88115 253.67728 L 198.16667 129.19211 L 198.16667 138.04839" />
    <path d="M 23.01673 6.29788 L 23.01673 109.43968" />
    <path d="M 29.98925 1.50999 L 23.01673 6.29788" />
    <path d="M 25.80574 -12.86468 A 3.175 1.64755 123.0114 0 1 27.5355 -13.1642" />
    <path d="M 24.07598 -7.83933 A 3.175 1.64755 123.0114 0 1 25.80574 -12.86468" />
    <path d="M 43.46899 35.01292 A 30 16.00439 55.52339 0 0 23.01673 6.29788" />
    <path d="M 45.82497 44.40095 L 43.46899 35.01292" />
    <path d="M 7.42546 166.73813 L 34.20075 68.33802" />
    <path d="M 42.11508 125.87426 L 34.95653 148.01551" />
    <path d="M 74.16985 30.11445 L 70.57852 66.79834" />
    <path d="M 74.16985 30.11445 A 30 5.33727 301.04203 0 0 73.52528 27.79686" />
    <path d="M 83.75121 162.95683 L 76.77868 167.74472" />
    <path d="M 83.75121 170.39908 L 83.75121 162.95683 L 79.43096 145.74159 L 65.56594 123.06438" />
    <path d="M 76.24782 89.70497 A 30 13.08487 36.06929 0 0 54.09762 65.64991" />
    <path d="M 98.27284 169.77013 L 76.24782 89.70497" />
    <path d="M 81.54591 82.43129 L 76.24782 89.70497" />
    <path d="M 50.44151 30.22503 L 43.46899 35.01292" />
    <path d="M 50.44151 30.22503 A 30 16.00439 55.52339 0 0 29.98925 1.50999" />
    <path d="M 51.75044 35.44082 L 50.44151 30.22503" />
    <path d="M 35.8413 -6.34467 A 3.175 1.64755 123.0114 0 1 37.57106 -6.64419 A 3.175 1.64755 123.0114 1 1 34.11154 -1.31932 A 3.175 1.64755 123.0114 0 1 35.8413 -6.34467 Z" />
    <path d="M -70.76898 109.86349 A 6.5 3.37293 123.0114 0 1 -71.33679 105.19356" />
    <path d="M -94.11693 96.19653 A 6.5 3.37293 123.0114 0 1 -92.75619 88.00239 L -84.22596 93.5444 A 6.5 3.37293 303.0114 0 0 -85.5867 101.73854 L -94.11693 96.19653 Z" />
    <path d="M -92.75619 88.00239 A 150 77.83683 123.0114 0 1 -100.67795 72.10401" />
    <path d="M -106.54012 68.29542 A 6.5 3.37293 123.0114 0 1 -103.68899 58.5376 L -95.15876 64.07961 A 6.5 3.37293 303.0114 0 0 -98.00989 73.83743 L -106.54012 68.29542 Z" />
    <path d="M -103.68899 58.5376 A 150 77.83683 123.0114 0 1 -103.89469 31.24415" />
    <path d="M -106.54012 29.52544 A 6.5 3.37293 123.0114 0 1 -102.11536 18.72344 L -93.58513 24.26545 A 6.5 3.37293 303.0114 0 0 -98.00989 35.06745 L -106.54012 29.52544 Z" />
    <path d="M -102.11536 18.72344 A 150 77.83683 123.0114 0 1 -92.93196 -14.66731" />
    <path d="M -94.11693 -15.43718 A 6.5 3.37293 123.0114 0 1 -88.22512 -26.63791 L -79.69489 -21.0959 A 6.5 3.37293 303.0114 0 0 -85.5867 -9.89517 L -94.11693 -15.43718 Z" />
    <path d="M -88.22512 -26.63791 A 150 77.83683 123.0114 0 1 -70.63915 -61.08493" />
    <path d="M -70.63563 -61.09079 A 6.5 3.37293 123.0114 0 1 -70.76898 -61.16928 A 6.5 3.37293 123.0114 0 1 -63.69362 -72.07519 L -55.16339 -66.53318 A 6.5 3.37293 303.0114 0 0 -62.23875 -55.62727 L -70.76898 -61.16928" />
    <path d="M -63.69362 -72.07519 A 150 77.83683 123.0114 0 1 -39.99537 -102.95225 L -31.46514 -97.41024" />
    <path d="M -39.99537 -102.95225 A 6.5 3.37293 123.0114 0 1 -32.2299 -113.05621" />
    <path d="M -31.20406 -112.38973 A 150 77.83683 123.0114 0 1 -4.53107 -135.68501 L 3.99916 -130.143" />
    <path d="M -4.53107 -135.68501 A 6.5 3.37293 123.0114 0 1 3.54124 -144.35188" />
    <path d="M 5.93491 -142.79673 A 150 77.83683 123.0114 0 1 31.47973 -155.34102 L 40.00996 -149.79901" />
    <path d="M 31.47973 -155.34102 A 6.5 3.37293 123.0114 0 1 39.31237 -162.18287" />
    <path d="M 44.45546 -158.84146 A 150 77.83683 123.0114 0 1 63.69362 -159.54948 L 72.22385 -154.00747" />
    <path d="M 63.69362 -159.54948 A 6.5 3.37293 123.0114 0 1 70.76898 -164.39851" />
    <path d="M 79.86702 -154.18657 A 150 77.83683 123.0114 0 1 81.72088 -153.05184" />
    <path d="M 88.76678 -148.47419 A 6.5 3.37293 123.0114 0 1 94.11693 -150.73155" />
    <path d="M 1.54509 -20.30985 A 11 5.70803 303.0114 0 0 2.85306 -21.62766" />
    <path d="M 6.31258 -26.95253 A 11 5.70803 303.0114 0 0 6.98514 -28.68316" />
    <path d="M -49.54526 110.99548 A 150 77.83683 123.0114 0 1 -55.16339 110.55647" />
    <path d="M -62.1054 109.10595 A 6.5 3.37293 303.0114 0 0 -62.23875 115.4055 L -70.76898 109.86349" />
    <path d="M -62.23875 115.4055 A 6.5 3.37293 303.0114 0 0 -55.16339 110.55647" />
    <path d="M -62.1054 109.10595 A 150 77.83683 123.0114 0 1 -73.19065 104.05883 L -80.23655 99.48118" />
    <path d="M -73.19065 104.05883 A 150 77.83683 123.0114 0 1 -79.69489 98.80977" />
    <path d="M -85.5867 101.73854 A 6.5 3.37293 303.0114 0 0 -79.69489 98.80977" />
    <path d="M -84.22596 93.5444 A 150 77.83683 123.0114 0 1 -93.58513 72.52473" />
    <path d="M -98.00989 73.83743 A 6.5 3.37293 303.0114 0 0 -93.58513 72.52473" />
    <path d="M -95.15876 64.07961 A 150 77.83683 123.0114 0 1 -95.15876 34.87173" />
    <path d="M -98.00989 35.06745 A 6.5 3.37293 303.0114 0 0 -95.15876 34.87173" />
    <path d="M -93.58513 24.26545 A 150 77.83683 123.0114 0 1 -84.22596 -9.60774" />
    <path d="M -85.5867 -9.89517 A 6.5 3.37293 303.0114 0 0 -84.22596 -9.60774" />
    <path d="M -79.69489 -21.0959 A 150 77.83683 123.0114 0 1 -62.1054 -55.54878" />
    <path d="M -62.23875 -55.62727 A 6.5 3.37293 303.0114 0 0 -62.1054 -55.54878" />
    <path d="M -55.16339 -66.53318 A 150 77.83683 123.0114 0 1 -31.46514 -97.41024" />
    <path d="M -22.9495 -106.566 A 6.5 3.37293 303.0114 0 0 -23.69967 -107.5142 L -32.2299 -113.05621" />
    <path d="M -23.69967 -107.5142 A 6.5 3.37293 303.0114 0 0 -31.46514 -97.41024" />
    <path d="M -22.9495 -106.566 A 150 77.83683 123.0114 0 1 3.99916 -130.143" />
    <path d="M 13.0613 -136.3658 A 6.5 3.37293 303.0114 0 0 12.07147 -138.80987 L 3.54124 -144.35188" />
    <path d="M 12.07147 -138.80987 A 6.5 3.37293 303.0114 0 0 3.99916 -130.143" />
    <path d="M 13.0613 -136.3658 A 150 77.83683 123.0114 0 1 40.00996 -149.79901" />
    <path d="M 48.5256 -152.33829 A 6.5 3.37293 303.0114 0 0 47.8426 -156.64086 L 39.31237 -162.18287" />
    <path d="M 47.8426 -156.64086 A 6.5 3.37293 303.0114 0 0 40.00996 -149.79901" />
    <path d="M 48.5256 -152.33829 A 150 77.83683 123.0114 0 1 72.22385 -154.00747" />
    <path d="M 79.16586 -152.55695 A 6.5 3.37293 303.0114 0 0 79.29921 -158.8565 L 70.76898 -164.39851" />
    <path d="M 79.29921 -158.8565 A 6.5 3.37293 303.0114 0 0 72.22385 -154.00747" />
    <path d="M 79.16586 -152.55695 A 150 77.83683 123.0114 0 1 90.25111 -147.50983 L 81.72088 -153.05184" />
    <path d="M 90.25111 -147.50983 A 150 77.83683 123.0114 0 1 96.75535 -142.26077" />
    <path d="M 101.28642 -136.9954 A 6.5 3.37293 303.0114 0 0 102.64716 -145.18954 L 94.11693 -150.73155" />
    <path d="M 102.64716 -145.18954 A 6.5 3.37293 303.0114 0 0 96.75535 -142.26077" />
    <path d="M 101.28642 -136.9954 A 150 77.83683 123.0114 0 1 110.64559 -115.97573" />
    <path d="M 112.21922 -107.53061 A 6.5 3.37293 303.0114 0 0 115.07035 -117.28843 L 109.20818 -121.09702" />
    <path d="M 115.07035 -117.28843 A 6.5 3.37293 303.0114 0 0 110.64559 -115.97573" />
    <path d="M 112.21922 -107.53061 A 150 77.83683 123.0114 0 1 112.21922 -78.32273" />
    <path d="M 110.64559 -67.71645 A 6.5 3.37293 303.0114 0 0 115.07035 -78.51845 L 112.42492 -80.23716" />
    <path d="M 115.07035 -78.51845 A 6.5 3.37293 303.0114 0 0 112.21922 -78.32273" />
    <path d="M 110.64559 -67.71645 A 150 77.83683 123.0114 0 1 101.28642 -33.84326" />
    <path d="M 96.75535 -22.35511 A 6.5 3.37293 303.0114 0 0 102.64716 -33.55583 L 101.46219 -34.3257" />
    <path d="M 102.64716 -33.55583 A 6.5 3.37293 303.0114 0 0 101.28642 -33.84326" />
    <path d="M 96.75535 -22.35511 A 150 77.83683 123.0114 0 1 81.54277 8.06822" />
    <path d="M -74.49749 86.45344 A 2.5 1.29728 123.0114 0 1 -77.3691 90.51673 A 2.5 1.29728 123.0114 0 1 -74.64507 86.32392 A 2.5 1.29728 123.0114 0 1 -74.49749 86.45344 Z" />
    <path d="M -50.34397 54.9832 A 2.5 1.29728 123.0114 0 1 -53.21558 59.0465 A 2.5 1.29728 123.0114 0 1 -50.49155 54.85369 A 2.5 1.29728 123.0114 0 1 -50.34397 54.9832 Z" />
    <path d="M -26.19045 23.51296 A 2.5 1.29728 123.0114 0 1 -29.06206 27.57626 A 2.5 1.29728 123.0114 0 1 -26.33803 23.38345 A 2.5 1.29728 123.0114 0 1 -26.19045 23.51296 Z" />
    <path d="M -87.34192 44.108 A 2.5 1.29728 123.0114 0 1 -90.44707 47.40138 A 2.5 1.29728 123.0114 0 1 -87.72304 43.20857 A 2.5 1.29728 123.0114 0 1 -87.34192 44.108 Z" />
    <path d="M -74.49749 -15.87747 A 2.5 1.29728 123.0114 0 1 -77.3691 -13.67473 A 2.5 1.29728 123.0114 0 1 -74.64507 -17.86754 A 2.5 1.29728 123.0114 0 1 -74.49749 -15.87747 Z" />
    <path d="M -59.45184 24.95644 A 2.5 1.29728 123.0114 0 1 -62.55699 28.24982 A 2.5 1.29728 123.0114 0 1 -59.83296 24.05701 A 2.5 1.29728 123.0114 0 1 -59.45184 24.95644 Z" />
    <path d="M -50.34397 -17.57871 A 2.5 1.29728 123.0114 0 1 -53.21558 -15.37598 A 2.5 1.29728 123.0114 0 1 -50.49155 -19.56879 A 2.5 1.29728 123.0114 0 1 -50.34397 -17.57871 Z" />
    <path d="M -31.56176 5.80487 A 2.5 1.29728 123.0114 0 1 -34.66691 9.09825 A 2.5 1.29728 123.0114 0 1 -31.94288 4.90544 A 2.5 1.29728 123.0114 0 1 -31.56176 5.80487 Z" />
    <path d="M -26.19045 -19.27996 A 2.5 1.29728 123.0114 0 1 -29.06206 -17.07723 A 2.5 1.29728 123.0114 0 1 -26.33803 -21.27004 A 2.5 1.29728 123.0114 0 1 -26.19045 -19.27996 Z" />
    <path d="M -11.51577 -45.02007 A 2.5 1.29728 123.0114 0 1 -13.74935 -43.93647 A 2.5 1.29728 123.0114 0 1 -11.02532 -48.12929 A 2.5 1.29728 123.0114 0 1 -11.51577 -45.02007 Z" />
    <path d="M -25.46081 -61.22499 A 2.5 1.29728 123.0114 0 1 -27.69439 -60.14139 A 2.5 1.29728 123.0114 0 1 -24.97036 -64.3342 A 2.5 1.29728 123.0114 0 1 -25.46081 -61.22499 Z" />
    <path d="M -39.40585 -77.42991 A 2.5 1.29728 123.0114 0 1 -41.63943 -76.34631 A 2.5 1.29728 123.0114 0 1 -38.9154 -80.53912 A 2.5 1.29728 123.0114 0 1 -39.40585 -77.42991 Z" />
    <path d="M 67.40443 -25.87229 A 2.5 1.29728 123.0114 0 1 70.27604 -28.07502 A 2.5 1.29728 123.0114 0 1 67.55201 -23.88221 A 2.5 1.29728 123.0114 0 1 67.40443 -25.87229 Z" />
    <path d="M 91.55795 -27.57354 A 2.5 1.29728 123.0114 0 1 94.42956 -29.77627 A 2.5 1.29728 123.0114 0 1 91.70553 -25.58346 A 2.5 1.29728 123.0114 0 1 91.55795 -27.57354 Z" />
    <path d="M 104.40238 -87.559 A 2.5 1.29728 123.0114 0 1 107.50753 -90.85238 A 2.5 1.29728 123.0114 0 1 104.7835 -86.65957 A 2.5 1.29728 123.0114 0 1 104.40238 -87.559 Z" />
    <path d="M 8.53023 -29.91197 A 11 5.70803 123.0114 0 1 11.58106 -31.3314" />
    <path d="M 0.99303 -15.03435 A 11 5.70803 123.0114 0 1 8.53023 -29.91197" />
    <path d="M 8.53023 -64.51842 A 2.5 1.29728 123.0114 0 1 7.16822 -64.28258 A 2.5 1.29728 123.0114 0 1 9.89224 -68.47539 A 2.5 1.29728 123.0114 0 1 8.53023 -64.51842 Z" />
    <path d="M 28.57623 -72.55045 A 2.5 1.29728 123.0114 0 1 28.08578 -72.66382 A 2.5 1.29728 123.0114 0 1 30.80981 -76.85663 A 2.5 1.29728 123.0114 0 1 28.57623 -72.55045 Z" />
    <path d="M 43.25091 -66.96397 A 2.5 1.29728 123.0114 0 1 46.12252 -71.02726 A 2.5 1.29728 123.0114 0 1 43.39849 -66.83445 A 2.5 1.29728 123.0114 0 1 43.25091 -66.96397 Z" />
    <path d="M 48.62222 -49.25587 A 2.5 1.29728 123.0114 0 1 51.72737 -52.54925 A 2.5 1.29728 123.0114 0 1 49.00334 -48.35644 A 2.5 1.29728 123.0114 0 1 48.62222 -49.25587 Z" />
    <path d="M 8.53023 -94.28741 A 2.5 1.29728 123.0114 0 1 7.16822 -94.05157 A 2.5 1.29728 123.0114 0 1 9.89224 -98.24438 A 2.5 1.29728 123.0114 0 1 8.53023 -94.28741 Z" />
    <path d="M 8.53023 -124.0564 A 2.5 1.29728 123.0114 0 1 7.16822 -123.82056 A 2.5 1.29728 123.0114 0 1 9.89224 -128.01337 A 2.5 1.29728 123.0114 0 1 8.53023 -124.0564 Z" />
    <path d="M 42.52127 -107.90693 A 2.5 1.29728 123.0114 0 1 42.03082 -108.0203 A 2.5 1.29728 123.0114 0 1 44.75485 -112.21312 A 2.5 1.29728 123.0114 0 1 42.52127 -107.90693 Z" />
    <path d="M 56.46631 -143.26341 A 2.5 1.29728 123.0114 0 1 55.97586 -143.37679 A 2.5 1.29728 123.0114 0 1 58.69989 -147.5696 A 2.5 1.29728 123.0114 0 1 56.46631 -143.26341 Z" />
    <path d="M 76.5123 -68.40744 A 2.5 1.29728 123.0114 0 1 79.61745 -71.70082 A 2.5 1.29728 123.0114 0 1 76.89342 -67.50801 A 2.5 1.29728 123.0114 0 1 76.5123 -68.40744 Z" />
    <path d="M 67.40443 -98.4342 A 2.5 1.29728 123.0114 0 1 70.27604 -102.4975 A 2.5 1.29728 123.0114 0 1 67.55201 -98.30469 A 2.5 1.29728 123.0114 0 1 67.40443 -98.4342 Z" />
    <path d="M 91.55795 -129.90444 A 2.5 1.29728 123.0114 0 1 94.42956 -133.96773 A 2.5 1.29728 123.0114 0 1 91.70553 -129.77492 A 2.5 1.29728 123.0114 0 1 91.55795 -129.90444 Z" />
    <path d="M 7.38634 -26.25491 L 5.67717 -27.36535" />
    <path d="M 3.92683 -20.93004 L 2.21765 -22.04048" />
    <path d="M -203.83015 132.13334 L -203.83015 123.27707" />
    <path d="M 37.57106 -6.64419 L 27.5355 -13.1642" />
    <path d="M 34.11154 -1.31932 L 24.07598 -7.83933" />
</svg>